<?xml version="1.0" encoding="utf-8"?>
<!-- Generator: Adobe Illustrator 18.0.0, SVG Export Plug-In . SVG Version: 6.00 Build 0)  -->
<!DOCTYPE svg PUBLIC "-//W3C//DTD SVG 1.1//EN" "http://www.w3.org/Graphics/SVG/1.1/DTD/svg11.dtd">
<svg version="1.1" xmlns="http://www.w3.org/2000/svg" xmlns:xlink="http://www.w3.org/1999/xlink" x="0px" y="0px"
	 viewBox="0 0 128 128" style="enable-background:new 0 0 128 128;" xml:space="preserve">
<g id="Layer_1">
</g>
<g id="Layer_6">
</g>
<g id="Layer_2">
</g>
<g id="Layer_3">
	<g>
		<g>
			<circle style="fill:#5F7382;" cx="64.56" cy="89.5" r="20"/>
		</g>
		<path style="fill:#5F7382;" d="M127.2,58.45L66.18,2.02C66,1.86,65.83,1.69,65.66,1.55L63.99,0l-1.81,1.68c0,0,0,0,0,0L0.8,58.67
			c-1.01,0.94-1.07,2.52-0.13,3.53c0.94,1.01,2.52,1.07,3.53,0.13l8.13-7.57L23.52,128h80.96l11.21-73.43l8.1,7.55
			c1.01,0.94,2.59,0.88,3.53-0.13S128.21,59.39,127.2,58.45z M100.26,123H27.74L16.91,51.03L63.99,6.67l47.1,44.37L100.26,123z"/>
	</g>
</g>
<g id="Layer_7">
</g>
<g id="Layer_4">
</g>
<g id="Layer_5">
</g>
<g id="Layer_8">
</g>
</svg>
