<?xml version="1.0" encoding="utf-8"?>
<!-- Generator: Adobe Illustrator 18.0.0, SVG Export Plug-In . SVG Version: 6.00 Build 0)  -->
<!DOCTYPE svg PUBLIC "-//W3C//DTD SVG 1.1//EN" "http://www.w3.org/Graphics/SVG/1.1/DTD/svg11.dtd">
<svg version="1.1" xmlns="http://www.w3.org/2000/svg" xmlns:xlink="http://www.w3.org/1999/xlink" x="0px" y="0px"
	 viewBox="0 0 128 128" style="enable-background:new 0 0 128 128;" xml:space="preserve">
<g id="Layer_1">
</g>
<g id="Layer_2_1_">
</g>
<g id="Layer_3">
</g>
<g id="Layer_4_1_">
</g>
<g id="Layer_5_1_">
</g>
<g id="Layer_6">
</g>
<g id="Layer_7">
</g>
<g id="Layer_8_1_">
</g>
<g id="Layer_5">
	<g id="wallet_x5F_plane_x5F_icon_1_">
		<path style="fill:#5F7382;" d="M110.11,97.02V121c0,1.1-0.9,2-2,2H6.96c-1.1,0-2-0.9-2-2V46.83c0-1.1,0.9-2,2-2h101.15
			c1.1,0,2,0.9,2,2v23.98h4.96V44.83c0-2.75-2.25-5-5-5H5c-2.75,0-5,2.25-5,5V123c0,2.75,2.25,5,5,5h105.08c2.75,0,5-2.25,5-5V97.02
			H110.11z"/>
		<g>
			<path style="fill:#5F7382;" d="M120.21,74.82c0.9,0,1.67,0.76,1.67,1.67v14.87c0,0.9-0.76,1.67-1.67,1.67H91.18
				c-0.9,0-1.67-0.76-1.67-1.67V76.48c0-0.9,0.76-1.67,1.67-1.67H120.21 M120.21,70.82H91.18c-3.12,0-5.67,2.55-5.67,5.67v14.87
				c0,3.12,2.55,5.67,5.67,5.67h29.03c3.12,0,5.67-2.55,5.67-5.67V76.48C125.88,73.37,123.33,70.82,120.21,70.82L120.21,70.82z"/>
		</g>
		<g>
			<circle style="fill:#5F7382;" cx="98.61" cy="83.92" r="6.02"/>
		</g>
		<g>
			<path style="fill:#5F7382;" d="M88.59,24.84l1.03,5.33H61.04L88.59,24.84 M91.76,20.16l-72.5,14.01h75.21L91.76,20.16
				L91.76,20.16z"/>
		</g>
		<g>
			<path style="fill:#5F7382;" d="M65.28,5.45l5.57,9.87L35.78,22.1L65.28,5.45 M66.8,0L12.42,30.69l64.65-12.5L66.8,0L66.8,0z"/>
		</g>
	</g>
</g>
<g id="Layer_11">
</g>
<g id="Layer_8">
</g>
</svg>
