<?xml version="1.0" encoding="utf-8"?>
<!-- Generator: Adobe Illustrator 18.0.0, SVG Export Plug-In . SVG Version: 6.00 Build 0)  -->
<!DOCTYPE svg PUBLIC "-//W3C//DTD SVG 1.1//EN" "http://www.w3.org/Graphics/SVG/1.1/DTD/svg11.dtd">
<svg version="1.1" xmlns="http://www.w3.org/2000/svg" xmlns:xlink="http://www.w3.org/1999/xlink" x="0px" y="0px"
	 viewBox="0 0 128 128" style="enable-background:new 0 0 128 128;" xml:space="preserve">
<g id="Layer_1">
	<g id="Gomigu_Icon_3_">
		<g>
			<g>
				<path style="fill:#5F7382;" d="M71.47,7.35c0.39,0.09,0.8,0.14,1.21,0.14c0.07,0,0.15,0,0.22,0C79.99,7.86,86.18,9,91.81,10.96
					c6.63,2.31,12.07,5.63,16.63,10.13c4.9,4.85,8.46,10.72,10.89,17.96c2.09,6.24,3.2,13.09,3.59,22.22
					c0.28,6.49-0.2,12.97-1.42,19.24c-1.44,7.41-3.72,13.55-6.98,18.76c-0.93,1.49-1.16,3.17-0.67,4.98l3.52,13.1
					c-4.68-1.25-9.36-2.51-14.04-3.77c-0.58-0.16-1.16-0.23-1.74-0.23c-1.04,0-2.06,0.25-3.03,0.75c-0.95,0.49-1.88,0.97-2.8,1.38
					c-6.98,3.11-15.02,4.78-24.55,5.13c-0.66,0.02-1.37,0.04-2.23,0.04c-0.73,0-1.46-0.01-2.19-0.02c-0.77-0.01-1.53-0.02-2.3-0.02
					c-0.45,0-0.89,0-1.34,0.01c-0.94,0.01-1.87,0.02-2.81,0.02c-3.94,0-7.21-0.16-10.27-0.49c-4.95-0.54-9.32-1.45-13.37-2.79
					c-13.47-4.45-22.45-12.94-27.44-25.95c-2.28-5.94-3.63-12.55-4.14-20.19c0.02-0.52-0.03-1.01-0.14-1.47v-7.68
					c0.09-0.39,0.13-0.8,0.13-1.25c0.28-5.19,0.69-9.15,1.33-12.81c1.06-6.12,2.79-11.43,5.28-16.25
					C15.98,23.57,22,17.57,30.15,13.45c6.47-3.27,13.98-5.19,22.94-5.87c0.18-0.01,0.36-0.02,0.54-0.02
					c0.6-0.02,1.38-0.04,2.25-0.21H71.47 M72.4,2.35c-5.7,0-11.4,0-17.1,0c-0.85,0.25-1.73,0.19-2.59,0.25
					C44.06,3.25,35.7,5.05,27.9,8.99c-9.09,4.59-15.94,11.46-20.61,20.5C4.41,35.07,2.6,41,1.53,47.18
					c-0.78,4.49-1.16,9.02-1.4,13.57c-0.01,0.14,0.05,0.31-0.13,0.4c0,3.19,0,6.39,0,9.58c0.22,0.13,0.12,0.35,0.13,0.53
					c0.47,7.53,1.77,14.9,4.48,21.96c5.56,14.5,15.84,24.05,30.54,28.91c4.68,1.55,9.5,2.48,14.4,3.01c3.6,0.39,7.2,0.52,10.81,0.52
					c0.96,0,1.93-0.01,2.89-0.02c0.42-0.01,0.84-0.01,1.26-0.01c1.5,0,2.99,0.03,4.49,0.03c0.8,0,1.61-0.01,2.41-0.04
					c9.12-0.33,18-1.83,26.4-5.56c1.04-0.46,2.06-0.98,3.07-1.51c0.25-0.13,0.48-0.19,0.73-0.19c0.14,0,0.28,0.02,0.43,0.06
					c7.24,1.95,14.48,3.89,21.72,5.82c0.24,0.06,0.4,0.11,0.5,0.11c0.19,0,0.15-0.16,0.02-0.61c-1.86-6.93-3.72-13.85-5.58-20.78
					c-0.1-0.36-0.14-0.67,0.08-1.03c3.94-6.3,6.24-13.2,7.65-20.46c1.31-6.75,1.8-13.55,1.5-20.41c-0.34-8.01-1.28-15.94-3.85-23.6
					c-2.53-7.55-6.42-14.29-12.12-19.92c-5.28-5.22-11.52-8.86-18.49-11.3c-6.65-2.32-13.52-3.41-20.53-3.77c-0.01,0-0.02,0-0.03,0
					c-0.07,0-0.14,0.01-0.22,0.01C72.58,2.48,72.47,2.46,72.4,2.35L72.4,2.35z"/>
			</g>
		</g>
		<g>
			<g>
				<path style="fill:#5F7382;" d="M76.11,42.29c-0.02,0.71-0.35,1.62-1.01,2.41c-0.15,0.18-0.32,0.35-0.49,0.52
					c-10.65,10.65-21.3,21.3-31.95,31.95c-1.29,1.29-2.78,1.88-4.58,1.33c-3.11-0.96-4.08-4.84-1.78-7.15
					C47.13,60.54,57.96,49.72,68.78,38.9c1.24-1.24,3.12-1.59,4.73-0.91C75.09,38.67,76.12,40.24,76.11,42.29z"/>
			</g>
			<g>
				<path style="fill:#5F7382;" d="M54.25,81.63c-1.43-0.06-2.78-0.89-3.53-2.56c-0.74-1.65-0.46-3.2,0.7-4.58
					c0.18-0.22,0.38-0.41,0.58-0.61c6.55-6.54,13.1-13.08,19.65-19.62c1.81-1.81,4.46-1.87,6.19-0.16c1.76,1.74,1.71,4.4-0.12,6.23
					c-6.63,6.64-13.27,13.27-19.9,19.91C56.94,81.12,55.91,81.64,54.25,81.63z"/>
			</g>
			<g>
				<path style="fill:#5F7382;" d="M84.42,70.12c0.01,1.28-0.53,2.33-1.42,3.22c-0.99,0.99-1.98,1.98-2.97,2.97
					c-3.07,3.07-6.13,6.14-9.2,9.2c-2.02,2-4.9,1.92-6.59-0.16c-1.36-1.68-1.26-4.15,0.25-5.67c4.2-4.22,8.41-8.43,12.63-12.63
					c1.24-1.23,3.07-1.57,4.67-0.88C83.41,66.85,84.43,68.38,84.42,70.12z"/>
			</g>
			<g>
				<path style="fill:#5F7382;" d="M78.66,85.62c-0.08-2.32,1.81-4.33,4.15-4.41c2.46-0.09,4.45,1.77,4.55,4.23
					c0.09,2.3-1.85,4.34-4.23,4.45C80.8,90,78.75,88.04,78.66,85.62z"/>
			</g>
		</g>
	</g>
</g>
<g id="Layer_6">
</g>
<g id="Layer_2">
</g>
<g id="Layer_3">
</g>
<g id="Layer_7">
</g>
<g id="Layer_4">
</g>
<g id="Layer_5">
</g>
<g id="Layer_8">
</g>
</svg>
