<?xml version="1.0" encoding="utf-8"?>
<!-- Generator: Adobe Illustrator 18.0.0, SVG Export Plug-In . SVG Version: 6.00 Build 0)  -->
<!DOCTYPE svg PUBLIC "-//W3C//DTD SVG 1.1//EN" "http://www.w3.org/Graphics/SVG/1.1/DTD/svg11.dtd">
<svg version="1.1" xmlns="http://www.w3.org/2000/svg" xmlns:xlink="http://www.w3.org/1999/xlink" x="0px" y="0px"
	 viewBox="0 0 128 128" style="enable-background:new 0 0 128 128;" xml:space="preserve">
<g id="Layer_1">
</g>
<g id="Layer_2_1_">
</g>
<g id="Layer_3">
</g>
<g id="Layer_4_1_">
</g>
<g id="Layer_5_1_">
</g>
<g id="Layer_6">
</g>
<g id="Layer_7">
</g>
<g id="Layer_8_1_">
	<g id="menu_x5F_notif_x5F_icon">
		<g>
			<g>
				<path style="fill:#F7E249;" d="M48.24,109.35c-0.15,0.87-0.24,1.76-0.24,2.67c0,8.82,7.16,15.98,16,15.98
					c8.84,0,16-7.15,16-15.98c0-0.91-0.09-1.8-0.24-2.67H48.24z"/>
				<path style="fill:#F7C92B;" d="M70.48,109.35c0.15,0.87,0.22,1.76,0.22,2.67c0,7.21-4.78,13.3-11.35,15.29
					c1.47,0.45,3.03,0.69,4.65,0.69c8.84,0,16-7.15,16-15.98c0-0.91-0.09-1.8-0.24-2.67H70.48z"/>
			</g>
			<g>
				<path style="fill:#F7E249;" d="M107.26,83.62c-0.14-0.13-0.29-0.24-0.45-0.35c-5.8-3.95-6.22-6.3-6.22-10.23V51.52
					c0-19.83-16.23-36.06-36.06-36.06h0c-19.83,0-36.06,16.23-36.06,36.06v21.53c0,3.66-1.32,6.75-6.67,10.27
					c-0.01,0.01-0.03,0.02-0.04,0.03c-5.85,1.34-10.25,6.59-10.25,12.83v0c0,7.24,5.92,13.17,13.17,13.17h78.63
					c7.24,0,13.17-5.92,13.17-13.17v0C116.48,90.31,112.59,85.31,107.26,83.62z"/>
				<path style="fill:#F7C92B;" d="M107.26,83.62c-0.14-0.13-0.29-0.24-0.45-0.35c-5.8-3.95-6.22-6.3-6.22-10.23V51.52
					c0-19.83-16.23-36.06-36.06-36.06h0c-3.66,0-7.19,0.55-10.53,1.58c18.47,3.35,32.6,19.61,32.6,39.01v23.67
					c0,4.32,0.45,6.9,6.83,11.24c0.17,0.12,0.34,0.25,0.49,0.39c5.86,1.85,10.14,7.35,10.14,13.81v0c0,1.46-0.22,2.87-0.63,4.2
					c7.19-0.07,13.04-5.96,13.04-13.16v0C116.48,90.31,112.59,85.31,107.26,83.62z"/>
			</g>
			<g>
				<path style="fill:#F7E249;" d="M57.3,16.19c2.34-0.48,4.76-0.73,7.23-0.73h0c2.16,0,4.27,0.2,6.32,0.57
					c2.07-2.16,3.09-5.26,2.45-8.41c-1.03-5.13-6.04-8.46-11.18-7.42c-5.14,1.03-8.47,6.03-7.44,11.16
					C55.08,13.26,56.01,14.91,57.3,16.19z"/>
				<path style="fill:#F7C92B;" d="M66.8,7.61c0.58,2.89-0.22,5.73-1.95,7.85c2.05,0.02,4.05,0.21,6.01,0.56
					c2.07-2.16,3.09-5.26,2.45-8.41c-1.03-5.13-6.04-8.46-11.18-7.42c-0.48,0.1-0.94,0.23-1.39,0.39
					C63.74,1.67,66.12,4.26,66.8,7.61z"/>
			</g>
		</g>
	</g>
</g>
<g id="Layer_5">
</g>
<g id="Layer_8">
</g>
</svg>
