<?xml version="1.0" encoding="utf-8"?>
<!-- Generator: Adobe Illustrator 18.0.0, SVG Export Plug-In . SVG Version: 6.00 Build 0)  -->
<!DOCTYPE svg PUBLIC "-//W3C//DTD SVG 1.1//EN" "http://www.w3.org/Graphics/SVG/1.1/DTD/svg11.dtd">
<svg version="1.1" xmlns="http://www.w3.org/2000/svg" xmlns:xlink="http://www.w3.org/1999/xlink" x="0px" y="0px"
	 viewBox="0 0 128 128" style="enable-background:new 0 0 128 128;" xml:space="preserve">
<g id="Layer_1">
</g>
<g id="Layer_6">
	<g id="Gomigu_Icon_2_">
		<path style="fill:#007AFF;" d="M126.41,81.47c1.31-6.75,1.8-13.55,1.5-20.41c-0.34-8.01-1.28-15.94-3.85-23.6
			c-2.53-7.55-6.42-14.29-12.12-19.92c-5.28-5.22-11.52-8.86-18.49-11.3c-6.65-2.32-13.52-3.41-20.53-3.77
			c-0.18-0.01-0.39,0.08-0.53-0.13c-5.7,0-11.4,0-17.1,0c-0.85,0.25-1.73,0.19-2.59,0.25C44.06,3.25,35.7,5.05,27.9,8.99
			c-9.09,4.59-15.94,11.46-20.61,20.5C4.41,35.07,2.6,41,1.53,47.18c-0.78,4.49-1.16,9.02-1.4,13.57c-0.01,0.14,0.05,0.31-0.13,0.4
			c0,3.19,0,6.39,0,9.58c0.22,0.13,0.12,0.35,0.13,0.53c0.47,7.53,1.77,14.9,4.48,21.96c5.56,14.5,15.84,24.05,30.54,28.91
			c4.68,1.55,9.5,2.48,14.4,3.01c4.56,0.5,9.12,0.57,13.7,0.49c2.72-0.04,5.44,0.08,8.16-0.02c9.12-0.33,18-1.83,26.4-5.56
			c1.04-0.46,2.06-0.98,3.07-1.51c0.39-0.2,0.73-0.25,1.16-0.13c7.24,1.95,14.48,3.89,21.72,5.82c0.7,0.19,0.7,0.19,0.52-0.5
			c-1.86-6.93-3.72-13.85-5.58-20.78c-0.1-0.36-0.14-0.67,0.08-1.03C122.7,95.62,125,88.72,126.41,81.47z M42.67,77.18
			c-1.29,1.29-2.78,1.88-4.58,1.33c-3.11-0.96-4.08-4.84-1.78-7.15C47.13,60.54,57.96,49.72,68.78,38.9
			c1.24-1.24,3.12-1.59,4.73-0.91c1.59,0.68,2.62,2.25,2.61,4.3c-0.02,0.71-0.35,1.62-1.01,2.41c-0.15,0.18-0.32,0.35-0.49,0.52
			C63.97,55.88,53.32,66.53,42.67,77.18z M57.82,80.24c-0.88,0.88-1.9,1.4-3.56,1.39c-1.43-0.06-2.78-0.89-3.53-2.56
			c-0.74-1.65-0.46-3.2,0.7-4.58c0.18-0.22,0.38-0.41,0.58-0.61c6.55-6.54,13.1-13.08,19.65-19.62c1.81-1.81,4.46-1.87,6.19-0.16
			c1.76,1.74,1.71,4.4-0.12,6.23C71.09,66.97,64.45,73.6,57.82,80.24z M70.83,85.51c-2.02,2-4.9,1.92-6.59-0.16
			c-1.36-1.68-1.26-4.15,0.25-5.67c4.2-4.22,8.41-8.43,12.63-12.63c1.24-1.23,3.07-1.57,4.67-0.88c1.62,0.69,2.63,2.22,2.63,3.96
			c0.01,1.28-0.53,2.33-1.42,3.22c-0.99,0.99-1.98,1.98-2.97,2.97C76.96,79.38,73.9,82.46,70.83,85.51z M83.13,89.89
			c-2.33,0.11-4.37-1.85-4.46-4.27c-0.08-2.32,1.81-4.33,4.15-4.41c2.46-0.09,4.45,1.77,4.55,4.23
			C87.45,87.73,85.51,89.77,83.13,89.89z"/>
		<g>
			<path style="fill:#0055FF;" d="M75.11,44.71c-0.15,0.18-0.32,0.35-0.49,0.52c-10.65,10.65-21.3,21.3-31.95,31.95
				c-1.29,1.29-2.78,1.88-4.58,1.33c-1.47-0.46-2.47-1.57-2.86-2.86c-0.66,2.15,0.46,4.62,2.86,5.36c1.8,0.56,3.28-0.03,4.58-1.33
				c10.65-10.66,21.3-21.3,31.95-31.95c0.17-0.17,0.33-0.34,0.49-0.52c0.66-0.79,0.99-1.71,1.01-2.41c0-0.54-0.07-1.04-0.2-1.5
				C75.75,43.76,75.48,44.26,75.11,44.71z"/>
			<path style="fill:#0055FF;" d="M77.72,60.33c-6.63,6.64-13.27,13.27-19.9,19.91c-0.88,0.88-1.9,1.4-3.56,1.39
				c-1.43-0.06-2.78-0.89-3.53-2.56c-0.08-0.18-0.14-0.35-0.2-0.53c-0.32,0.96-0.27,1.97,0.2,3.03c0.75,1.67,2.1,2.5,3.53,2.56
				c1.66,0.01,2.68-0.51,3.56-1.39c6.63-6.64,13.27-13.27,19.9-19.91c1.28-1.28,1.69-2.97,1.21-4.47
				C78.71,59.07,78.31,59.74,77.72,60.33z"/>
			<path style="fill:#0055FF;" d="M83,73.34c-0.99,0.99-1.98,1.98-2.97,2.97c-3.07,3.07-6.13,6.14-9.2,9.2
				c-2.02,2-4.9,1.92-6.59-0.16c-0.36-0.44-0.61-0.94-0.77-1.46c-0.4,1.32-0.15,2.82,0.77,3.96c1.68,2.08,4.57,2.17,6.59,0.16
				c3.08-3.06,6.14-6.13,9.2-9.2c0.99-0.99,1.98-1.98,2.97-2.97c0.89-0.89,1.42-1.94,1.42-3.22c0-0.44-0.06-0.86-0.18-1.26
				C84.01,72.1,83.59,72.76,83,73.34z"/>
			<path style="fill:#0055FF;" d="M87.04,83.94c0.18,0.46,0.3,0.97,0.32,1.5c0.09,2.3-1.85,4.34-4.23,4.45
				c-1.19,0.06-2.31-0.43-3.13-1.25c0.68,1.66,2.32,2.83,4.13,2.75c2.38-0.11,4.32-2.15,4.23-4.45
				C88.31,85.74,87.82,84.69,87.04,83.94z"/>
		</g>
		<g>
			<path style="fill:#0055FF;" d="M89.53,118.26c-0.43-0.11-0.77-0.07-1.16,0.13c-1.01,0.52-2.03,1.05-3.07,1.51
				c-8.4,3.74-17.28,5.23-26.4,5.56c-1.72,0.06-3.43,0.04-5.15,0.02c3.16,0.18,6.33,0.2,9.5,0.15c2.72-0.04,5.44,0.08,8.16-0.02
				c8.9-0.33,17.57-1.76,25.79-5.3C94.63,119.63,92.08,118.95,89.53,118.26z"/>
			<path style="fill:#0055FF;" d="M126.41,81.47c1.31-6.75,1.8-13.55,1.5-20.41c-0.34-8.01-1.28-15.94-3.85-23.6
				c-2.53-7.55-6.42-14.29-12.12-19.92c-5.28-5.22-11.52-8.86-18.49-11.3c-6.65-2.32-13.52-3.41-20.53-3.77
				c-0.18-0.01-0.39,0.08-0.53-0.13c-3.82,0-7.65,0-11.47,0c6.84,0.38,13.55,1.48,20.04,3.74c6.98,2.43,13.22,6.08,18.49,11.3
				c5.7,5.63,9.58,12.37,12.12,19.92c2.57,7.65,3.5,15.59,3.85,23.6c0.29,6.85-0.19,13.65-1.5,20.41
				c-1.41,7.26-3.71,14.16-7.65,20.46c-0.23,0.37-0.18,0.67-0.08,1.03c1.62,6.01,3.23,12.02,4.84,18.03
				c4.24,1.14,8.48,2.27,12.72,3.41c0.7,0.19,0.7,0.19,0.52-0.5c-1.86-6.93-3.72-13.85-5.58-20.78c-0.1-0.36-0.14-0.67,0.08-1.03
				C122.7,95.62,125,88.72,126.41,81.47z"/>
		</g>
	</g>
</g>
<g id="Layer_2">
</g>
<g id="Layer_3">
</g>
<g id="Layer_7">
</g>
<g id="Layer_4">
</g>
<g id="Layer_5">
</g>
<g id="Layer_8">
</g>
</svg>
