<?xml version="1.0" encoding="utf-8"?>
<!-- Generator: Adobe Illustrator 18.0.0, SVG Export Plug-In . SVG Version: 6.00 Build 0)  -->
<!DOCTYPE svg PUBLIC "-//W3C//DTD SVG 1.1//EN" "http://www.w3.org/Graphics/SVG/1.1/DTD/svg11.dtd">
<svg version="1.1" xmlns="http://www.w3.org/2000/svg" xmlns:xlink="http://www.w3.org/1999/xlink" x="0px" y="0px"
	 viewBox="0 0 128 128" style="enable-background:new 0 0 128 128;" xml:space="preserve">
<g id="Layer_1">
</g>
<g id="Layer_2_1_">
</g>
<g id="Layer_3">
</g>
<g id="Layer_4_1_">
</g>
<g id="Layer_5_1_">
</g>
<g id="Layer_9">
	<g id="profile_x5F_color_x5F_icon_1_">
		<g>
			<path style="fill-rule:evenodd;clip-rule:evenodd;fill:#F9D5B4;" d="M79.92,82.65c-0.69,3.08-0.58,9.99,0.64,13.25
				c0.45,1.21,23.02,10.22,25.8,11.33c5.81,2.32,10.93,4.71,13.11,7.09c2.47,2.7,4.33,7.4,4.33,13.68c-47.42,0-72.25,0-119.59,0
				c0-6.27,1.86-10.98,4.33-13.68c2.18-2.38,7.3-4.77,13.11-7.09c2.78-1.11,25.33-10.32,25.78-11.53c1.21-3.26,1.35-9.97,0.66-13.05
				C67.1,72.6,60.76,72.53,79.92,82.65z"/>
			<path style="fill-rule:evenodd;clip-rule:evenodd;fill:#F2B78B;" d="M85.86,99.02c0,0-6.51,9.25-11.59,9.81
				c-7.62,0.84-9.42-1.71-14.46-6.69c-4.21-4.16-9.29-9.69-10.93-13.54c0,0-0.88-7.56-1.44-8.85C46.88,78.46,61.58,73,61.58,73
				l14.87-0.28l3.47,9.93c0,0-1,9.29,0.64,13.25L85.86,99.02z"/>
			<path style="fill-rule:evenodd;clip-rule:evenodd;fill:#F9D5B4;" d="M44.15,64.8c0,0-4.52,1.39-7.77-2.43
				c-3.25-3.82-9.19-21.59,4.68-19.12L44.15,64.8z"/>
			<path style="fill-rule:evenodd;clip-rule:evenodd;fill:#F9D5B4;" d="M84.72,64.93c0,0,4.52,1.39,7.77-2.43
				c3.25-3.82,9.19-21.59-4.68-19.12L84.72,64.93z"/>
			<path style="fill-rule:evenodd;clip-rule:evenodd;fill:#F9D5B4;" d="M79.84,85.81c-13.63,14.67-18.95,14.67-32.58,0
				c-9.06-9.75-10.07-20.08-10.68-32.04C36.01,42.93,33.02,28,38.96,20.9c9.33-11.15,39.72-11.15,49.05,0
				c5.95,7.11,2.95,22.03,2.39,32.87C89.79,65.73,88.9,76.06,79.84,85.81z"/>
		</g>
		<linearGradient id="SVGID_2_" gradientUnits="userSpaceOnUse" x1="61.2247" y1="37.5345" x2="73.4234" y2="27.904">
			<stop  offset="0.2733" style="stop-color:#6B2405"/>
			<stop  offset="1" style="stop-color:#8F4E21"/>
			<stop  offset="1" style="stop-color:#904F22"/>
		</linearGradient>
		<path style="fill:url(#SVGID_2_);" d="M76.66,30.13c-5.95-3.97-13.4-4.71-19.83-1.95c-6.43,2.75-11.73,8.95-14.1,16.49
			c5.79-1.89,11.58-3.78,17.37-5.67c7.05-2.3,11.55-9.34,18.41-10.75c4.9-1.01,11.73,0.43,4.6,5.79c-2.09,1.57-4.48,2.45-6.84,3.33
			c-4.36,1.61-8.72,3.21-13.07,4.82c1.01-0.37,3.75-6.43,4.89-7.64c1.69-1.81,3.63-3.32,5.71-4.47"/>
		<linearGradient id="SVGID_3_" gradientUnits="userSpaceOnUse" x1="55.8075" y1="23.6389" x2="68.5512" y2="13.578">
			<stop  offset="0" style="stop-color:#6B2405"/>
			<stop  offset="1" style="stop-color:#904F22"/>
		</linearGradient>
		<path style="fill:url(#SVGID_3_);" d="M92.1,20.04c1.39-4.63-1.49-9.83-5.17-12.98C80.65,1.66,73.62-0.08,67.16,0
			c-14.18,0.17-25.3,4.29-32.4,20.17c0.54,0.33,8.49,5.68,9.03,6.01c14.37,8.78,32.56,1.44,47.78-4.99
			C91.26,20.66,92.41,20.58,92.1,20.04z"/>
		<linearGradient id="SVGID_4_" gradientUnits="userSpaceOnUse" x1="62.8341" y1="35.0613" x2="75.7973" y2="24.8272">
			<stop  offset="0" style="stop-color:#6B2405"/>
			<stop  offset="0.7106" style="stop-color:#904F22"/>
		</linearGradient>
		<path style="fill:url(#SVGID_4_);" d="M96.7,24.4c-0.07-0.58-0.23-1.14-0.5-1.66C91.74,14.2,76.88,1.11,64.58,1.68
			c-19.1-0.02-27.7,11.26-30.3,19.95c-0.17,0.55-0.49,1.87-0.57,2.45c-1.84,7.71-0.37,14.89,1.37,21.03c1,3.82,1.33,6.23,3.26,10.27
			c-0.84-5.61-0.54-8.97,1.25-13.81c1.44-3.92,14.22-7.13,22.61-7.13c7.96,0,17.58-2.09,23.45-4.69
			c-3.31,4.21,1.65,10.72,4.44,15.78c0.39,4.15-0.01,6.56-0.74,10.75c2.22-3.33,4.64-8.03,6.22-12.07
			C97.31,38.34,99.9,31.71,96.7,24.4z"/>
		<path style="fill-rule:evenodd;clip-rule:evenodd;fill:#007AFF;" d="M85.92,99.04c7.38,3.18,18.63,7.17,20.44,7.91
			c5.81,2.35,10.93,4.78,13.11,7.19c2.47,2.73,4.33,7.51,4.33,13.87c-47.42,0-72.25,0-119.59,0c0-6.36,1.86-11.14,4.33-13.87
			c2.18-2.41,7.3-4.84,13.11-7.19c1.77-0.72,12.63-4.57,20-7.74c6.83,3.16,13.93,4.67,22.01,4.67
			C71.74,103.87,79,102.29,85.92,99.04z"/>
	</g>
</g>
<g id="Layer_4">
</g>
<g id="Layer_5">
</g>
<g id="Layer_8">
</g>
</svg>
