<?xml version="1.0" encoding="utf-8"?>
<!-- Generator: Adobe Illustrator 18.0.0, SVG Export Plug-In . SVG Version: 6.00 Build 0)  -->
<!DOCTYPE svg PUBLIC "-//W3C//DTD SVG 1.1//EN" "http://www.w3.org/Graphics/SVG/1.1/DTD/svg11.dtd">
<svg version="1.1" xmlns="http://www.w3.org/2000/svg" xmlns:xlink="http://www.w3.org/1999/xlink" x="0px" y="0px"
	 viewBox="0 0 128 128" style="enable-background:new 0 0 128 128;" xml:space="preserve">
<g id="Layer_1">
</g>
<g id="Layer_2_1_">
</g>
<g id="Layer_3">
</g>
<g id="Layer_4_1_">
</g>
<g id="Layer_5_1_">
	<g>
		<path style="fill:#5F7382;" d="M67.58,5c6.16,0,11.58,1.97,16.1,5.85c2.2,1.89,3.72,4.54,3.78,6.6l0.05,1.73l1.11,1.33
			c1.33,1.59,2.41,3.14,3.12,4.48c0,0.01,0,0.03,0.01,0.04l0.09,0.71l0.29,0.66c2.16,4.92,0.71,9.65-0.82,14.65
			c-0.15,0.51-0.31,1.01-0.46,1.5c-0.09,0.23-0.18,0.46-0.28,0.69l-1.12,2.71l1.82,2.3c0.18,0.22,0.67,1.72-0.1,5.01
			c-0.7,2.96-1.97,5.38-2.47,5.97c-0.31,0.36-0.63,0.6-1,0.75l-2.73,1.06l-0.42,2.9c-1.12,7.83-3.62,13.35-8.36,18.45l-0.07,0.07
			l-0.09,0.09l-1.25,1.34l-0.08,1.83c-0.14,3.03-0.07,5.66,0.21,7.81l0.01,0.05l0.01,0.05c0.23,1.55,0.55,2.89,0.96,3.98l0.62,1.67
			l1.54,0.9l2.78,1.63l0.18,0.1l0.18,0.09c2.79,1.35,7.47,3.37,13.9,6.02l0.07,0.03l0.07,0.03c2.3,0.87,4.44,1.66,6.12,2.28
			c1.47,0.54,2.73,1.01,3.15,1.18c7.74,3.13,10.41,4.94,11.28,5.91c1.15,1.27,2.01,3.2,2.52,5.52H9.72
			c0.51-2.32,1.38-4.25,2.52-5.52c0.87-0.97,3.54-2.78,11.28-5.91c0.41-0.17,1.64-0.62,3.07-1.15c1.32-0.49,2.94-1.09,4.71-1.75
			l0.08-0.03l0.08-0.03c19.53-8.16,19.79-8.85,20.64-11.16c1.31-3.54,1.41-8.44,1.38-10.38l-0.02-1.97l-1.36-1.42
			c-0.39-0.41-0.79-0.83-1.19-1.27c-5.03-5.42-7.53-11.13-8.62-19.71l-0.25-1.94l-1.5-1.26c-0.13-0.11-0.25-0.23-0.37-0.37
			c-0.5-0.59-1.78-3.03-2.48-6c-0.76-3.26-0.26-4.78-0.13-4.95l2.97-2l-0.94-3.46c-1.37-5.04-2.57-11.05-1.03-17.47L38.63,25
			l0.03-0.27c0.04-0.29,0.27-1.26,0.4-1.67c0.55-1.85,1.69-4.65,3.97-7.46l0.08-0.1l0.08-0.1C48.47,8.16,55.43,5.15,67.22,5L67.58,5
			 M67.58,0c-0.14,0-0.28,0-0.42,0c-11.53,0.14-21.04,2.89-28,12.45c-2.43,3-4,6.23-4.88,9.18c-0.17,0.55-0.49,1.87-0.57,2.45
			c-1.74,7.26-0.53,14.06,1.07,19.95c-5.24,3.53-0.99,15.32,1.59,18.35c0.31,0.36,0.63,0.68,0.96,0.95
			c1.03,8.06,3.36,15.42,9.92,22.48c0.42,0.45,0.83,0.89,1.24,1.31c0.03,3.04-0.3,6.51-1.07,8.58c-0.3,0.81-10.35,5.14-17.88,8.29
			c-3.85,1.45-7.01,2.59-7.89,2.95c-5.81,2.35-10.93,4.78-13.11,7.19c-2.47,2.73-4.33,7.51-4.33,13.87c47.34,0,72.17,0,119.59,0
			c0-6.36-1.86-11.14-4.33-13.87c-2.18-2.41-7.3-4.84-13.11-7.19c-1-0.4-4.87-1.8-9.39-3.51c-4.86-2-10.39-4.34-13.63-5.9
			l-2.78-1.63c-0.3-0.81-0.53-1.84-0.7-2.98c-0.29-2.26-0.26-4.91-0.17-6.95c0.05-0.06,0.1-0.11,0.16-0.17
			c6.19-6.67,8.57-13.6,9.65-21.15c1.01-0.39,2.06-1.06,3-2.16c2.37-2.78,6.16-12.96,2.69-17.33c0.13-0.32,0.27-0.65,0.39-0.97
			c1.74-5.87,4.33-12.49,1.13-19.8c-0.07-0.58-0.23-1.14-0.5-1.66c-0.88-1.69-2.16-3.55-3.75-5.44c-0.11-3.83-2.55-7.7-5.52-10.25
			C80.79,1.78,73.92,0,67.58,0L67.58,0z"/>
	</g>
</g>
<g id="Layer_9">
</g>
<g id="Layer_4">
</g>
<g id="Layer_5">
</g>
<g id="Layer_8">
</g>
</svg>
