<?xml version="1.0" encoding="utf-8"?>
<!-- Generator: Adobe Illustrator 18.0.0, SVG Export Plug-In . SVG Version: 6.00 Build 0)  -->
<!DOCTYPE svg PUBLIC "-//W3C//DTD SVG 1.1//EN" "http://www.w3.org/Graphics/SVG/1.1/DTD/svg11.dtd">
<svg version="1.1" xmlns="http://www.w3.org/2000/svg" xmlns:xlink="http://www.w3.org/1999/xlink" x="0px" y="0px"
	 viewBox="0 0 128 128" style="enable-background:new 0 0 128 128;" xml:space="preserve">
<g id="Layer_1">
</g>
<g id="Layer_2_1_">
</g>
<g id="Layer_3">
</g>
<g id="Layer_4_1_">
</g>
<g id="Layer_5_1_">
</g>
<g id="Layer_6">
</g>
<g id="Layer_7">
	<g>
		<g>
			<g>
				<path style="fill:#5F7382;" d="M74.83,109.35c0.21,0.86,0.34,1.75,0.34,2.67c0,6.15-5,11.14-11.16,11.14
					c-0.17,0-0.34-0.01-0.51-0.01c-0.05,0-0.11-0.01-0.16-0.01c-0.12-0.01-0.23-0.02-0.35-0.03c-0.06-0.01-0.12-0.01-0.18-0.02
					c-0.15-0.02-0.29-0.03-0.44-0.06c-0.08-0.01-0.16-0.03-0.24-0.04c-0.08-0.01-0.17-0.03-0.25-0.04
					c-0.09-0.02-0.18-0.04-0.27-0.05c-0.06-0.01-0.12-0.03-0.18-0.04c-4.92-1.16-8.58-5.57-8.58-10.84c0-0.92,0.12-1.82,0.33-2.67
					h-4.94c-0.15,0.87-0.23,1.76-0.23,2.67c0,7.55,5.25,13.88,12.31,15.55c0.09,0.02,0.18,0.04,0.26,0.06
					c0.13,0.03,0.25,0.05,0.38,0.08c0.12,0.02,0.24,0.04,0.35,0.06c0.12,0.02,0.23,0.04,0.35,0.06c0.21,0.03,0.41,0.06,0.62,0.08
					c0.09,0.01,0.17,0.02,0.26,0.02c0.17,0.02,0.33,0.03,0.5,0.04c0.08,0,0.16,0.01,0.23,0.01c0.24,0.01,0.49,0.02,0.73,0.02
					c8.84,0,16-7.15,16-15.98c0-0.91-0.09-1.8-0.24-2.67H74.83z"/>
			</g>
			<g>
				<path style="fill:#5F7382;" d="M64.01,5c2.13,0,3.98,1.51,4.39,3.6c0.24,1.17,0,2.36-0.66,3.36c-0.66,1-1.68,1.68-2.86,1.91
					c-0.09,0.02-0.19,0.03-0.28,0.05l-0.09,0.01c-0.07,0.01-0.14,0.01-0.21,0.02l-0.08,0.01c-0.07,0-0.15,0.01-0.24,0.01l-0.09,0
					c-0.07,0-0.15,0-0.22-0.01l-0.08-0.01c-0.08-0.01-0.16-0.02-0.24-0.03L63.3,13.9c-0.08-0.01-0.16-0.03-0.23-0.04l-0.06-0.01
					l-0.02,0c-0.08-0.02-0.15-0.04-0.27-0.07c-1.61-0.47-2.81-1.78-3.13-3.42c-0.46-2.26,0.93-4.53,3.15-5.17l0.06-0.02
					c0.1-0.03,0.2-0.05,0.31-0.08C63.41,5.03,63.71,5,64.01,5 M64.01,0c-0.62,0-1.25,0.06-1.88,0.19c-0.22,0.04-0.43,0.1-0.64,0.15
					c-0.04,0.01-0.09,0.02-0.13,0.04c-4.7,1.35-7.65,6.1-6.66,10.97c0.72,3.57,3.35,6.26,6.62,7.22c0.03,0.01,0.07,0.02,0.1,0.03
					c0.16,0.05,0.32,0.09,0.48,0.12c0.04,0.01,0.08,0.02,0.11,0.03c0.19,0.04,0.38,0.08,0.58,0.11c0.02,0,0.04,0,0.06,0.01
					c0.17,0.02,0.34,0.04,0.51,0.06c0.06,0,0.11,0.01,0.17,0.01c0.15,0.01,0.31,0.02,0.46,0.02c0.04,0,0.09,0,0.13,0
					c0.02,0,0.04,0,0.07,0c0.17,0,0.34,0,0.51-0.01c0.05,0,0.11-0.01,0.16-0.01c0.15-0.01,0.3-0.02,0.44-0.04
					c0.06-0.01,0.12-0.01,0.18-0.02c0.2-0.03,0.39-0.06,0.59-0.1c5.14-1.03,8.47-6.03,7.44-11.16C72.4,3.11,68.44,0,64.01,0L64.01,0
					z"/>
			</g>
			<g>
				<path style="fill:#5F7382;" d="M64.53,20.46c17.13,0,31.06,13.93,31.06,31.06v21.53c0,5.73,1.3,9.52,8.4,14.36
					c-0.01-0.01-0.03-0.02-0.03-0.02c0,0,0,0,0,0l0.79,0.69l1,0.32c3.37,1.07,5.73,4.27,5.73,7.79c0,0.14,0,0.28-0.01,0.42l0-0.02
					l-0.01,0.17l-0.01,0.11l-0.01,0.12l-0.01,0.05l-0.02,0.16l-0.02,0.13l-0.01,0.08l-0.01,0.06l-0.03,0.15l-0.02,0.14l-0.01,0.06
					l-0.02,0.08l-0.03,0.13l-0.03,0.14l-0.01,0.04l-0.03,0.11l-0.03,0.12l-0.04,0.16l-0.04,0.13l-0.03,0.09l-0.05,0.15
					c-0.02,0.05-0.04,0.1-0.06,0.15l-0.03,0.09l-0.05,0.13c-0.03,0.06-0.06,0.12-0.08,0.19l-0.02,0.05l-0.07,0.15
					c-0.04,0.07-0.07,0.14-0.12,0.23l-0.06,0.13c-0.04,0.08-0.09,0.15-0.13,0.22l-0.07,0.12c-0.05,0.08-0.1,0.16-0.15,0.24
					l-0.06,0.09c-0.06,0.08-0.11,0.16-0.17,0.24l-0.06,0.09l0,0c-0.06,0.08-0.12,0.15-0.18,0.23l-0.05,0.07
					c-0.07,0.08-0.14,0.17-0.2,0.24l-0.05,0.05c-0.08,0.09-0.16,0.17-0.22,0.23l-0.07,0.07l-0.01,0.01
					c-0.08,0.08-0.16,0.15-0.23,0.22l-0.02,0.02l-0.01,0.01c-1.49,1.35-3.41,2.11-5.4,2.13c-0.05,0-0.09,0-0.14,0H24.68
					c-4.5,0-8.17-3.66-8.17-8.17c0-3.77,2.68-7.12,6.36-7.96l0.91-0.21l0.77-0.52l0.08-0.06c6.11-4.05,8.83-8.49,8.83-14.39V51.52
					c0-14.01,9.47-26.35,23.04-30l0.06-0.02l0.01,0c0.69-0.18,1.39-0.34,2.1-0.48L58.75,21l0.08-0.01c0.34-0.06,0.69-0.13,1.03-0.18
					l0.02,0l0.04-0.01c0.33-0.05,0.67-0.09,1.01-0.13l0.21-0.02c0.34-0.04,0.68-0.07,1.02-0.1l0.03,0l0.04,0
					c0.33-0.02,0.66-0.04,1-0.06l0.26-0.01C63.83,20.47,64.18,20.46,64.53,20.46 M64.53,15.46L64.53,15.46
					c-0.41,0-0.81,0.01-1.22,0.02c-0.1,0-0.2,0.01-0.3,0.01c-0.39,0.02-0.77,0.04-1.16,0.07c-0.02,0-0.03,0-0.05,0
					c-0.41,0.03-0.81,0.07-1.22,0.12c-0.08,0.01-0.16,0.02-0.25,0.03c-0.39,0.05-0.78,0.1-1.17,0.16c-0.01,0-0.02,0-0.02,0
					c-0.41,0.06-0.83,0.13-1.24,0.21c-0.05,0.01-0.11,0.02-0.16,0.03c-0.82,0.16-1.64,0.35-2.44,0.56
					c-0.03,0.01-0.06,0.02-0.09,0.02c-15.35,4.14-26.74,18.22-26.74,34.83v21.53c0,3.66-1.32,6.75-6.67,10.27
					c-0.01,0.01-0.03,0.02-0.04,0.03c-5.85,1.34-10.25,6.59-10.25,12.83v0c0,7.24,5.92,13.17,13.17,13.17h78.63
					c0.04,0,0.08,0,0.12,0l0,0c3.37-0.03,6.44-1.34,8.76-3.47c0,0,0.01-0.01,0.01-0.01c0.15-0.14,0.3-0.28,0.44-0.42
					c0.01-0.01,0.02-0.02,0.03-0.03c0.14-0.14,0.27-0.28,0.41-0.43c0.01-0.02,0.03-0.03,0.04-0.05c0.13-0.14,0.25-0.28,0.37-0.43
					c0.02-0.02,0.03-0.04,0.05-0.06c0.11-0.14,0.23-0.28,0.34-0.43c0.02-0.03,0.04-0.06,0.06-0.08c0.1-0.14,0.21-0.28,0.3-0.43
					c0.02-0.04,0.05-0.07,0.07-0.11c0.09-0.14,0.18-0.28,0.27-0.42c0.03-0.04,0.05-0.09,0.08-0.13c0.08-0.14,0.16-0.27,0.24-0.41
					c0.03-0.05,0.05-0.11,0.08-0.16c0.07-0.13,0.14-0.27,0.21-0.41c0.03-0.06,0.06-0.13,0.09-0.19c0.06-0.13,0.12-0.26,0.18-0.39
					c0.03-0.07,0.06-0.15,0.09-0.22c0.05-0.13,0.1-0.25,0.15-0.38c0.03-0.08,0.05-0.16,0.08-0.24c0.04-0.12,0.09-0.24,0.12-0.37
					c0.03-0.09,0.05-0.18,0.08-0.27c0.03-0.12,0.07-0.23,0.1-0.35c0.03-0.1,0.05-0.2,0.07-0.3c0.03-0.11,0.05-0.22,0.08-0.33
					c0.02-0.11,0.04-0.22,0.06-0.34c0.02-0.1,0.04-0.2,0.06-0.31c0.02-0.12,0.03-0.24,0.05-0.37c0.01-0.1,0.03-0.19,0.04-0.29
					c0.01-0.14,0.02-0.28,0.03-0.41c0.01-0.08,0.01-0.17,0.02-0.25c0.01-0.22,0.02-0.45,0.02-0.67v0c0-5.87-3.89-10.87-9.22-12.56
					c-0.14-0.13-0.29-0.24-0.45-0.35c-5.8-3.95-6.22-6.3-6.22-10.23V51.52C100.6,31.69,84.37,15.46,64.53,15.46L64.53,15.46z"/>
			</g>
		</g>
	</g>
</g>
<g id="Layer_8_1_">
</g>
<g id="Layer_5">
</g>
<g id="Layer_8">
</g>
</svg>
