<?xml version="1.0" encoding="utf-8"?>
<!-- Generator: Adobe Illustrator 18.0.0, SVG Export Plug-In . SVG Version: 6.00 Build 0)  -->
<!DOCTYPE svg PUBLIC "-//W3C//DTD SVG 1.1//EN" "http://www.w3.org/Graphics/SVG/1.1/DTD/svg11.dtd">
<svg version="1.1" xmlns="http://www.w3.org/2000/svg" xmlns:xlink="http://www.w3.org/1999/xlink" x="0px" y="0px"
	 viewBox="0 0 128 128" style="enable-background:new 0 0 128 128;" xml:space="preserve">
<g id="Layer_1">
</g>
<g id="Layer_6">
</g>
<g id="Layer_2">
</g>
<g id="Layer_3">
</g>
<g id="Layer_7">
	<g>
		<radialGradient id="SVGID_1_" cx="13.8331" cy="59.8005" r="93.4113" gradientUnits="userSpaceOnUse">
			<stop  offset="0" style="stop-color:#484848"/>
			<stop  offset="0.2555" style="stop-color:#424242"/>
			<stop  offset="0.6117" style="stop-color:#2F2F2F"/>
			<stop  offset="1" style="stop-color:#141414"/>
		</radialGradient>
		<polygon style="fill:url(#SVGID_1_);" points="104.48,128 114.95,59.43 13.05,59.43 23.52,128 		"/>
		<linearGradient id="SVGID_2_" gradientUnits="userSpaceOnUse" x1="13.0493" y1="93.7156" x2="78.9351" y2="93.7156">
			<stop  offset="0" style="stop-color:#FFFFFF"/>
			<stop  offset="1" style="stop-color:#FFFFFF;stop-opacity:0"/>
		</linearGradient>
		<polygon style="opacity:0.1;fill:url(#SVGID_2_);" points="56.75,128 78.94,59.43 13.05,59.43 23.52,128 		"/>
		<g>
			<g id="Circle">
				<g>
					<ellipse style="fill-rule:evenodd;clip-rule:evenodd;" cx="64.57" cy="89.5" rx="21.28" ry="21.27"/>
				</g>
			</g>
			<g>
				<path style="fill:#FFFFFF;" d="M49.32,95.92c0.1,0,0.19,0.02,0.26,0.05c0.07,0.03,0.13,0.08,0.18,0.13
					c0.05,0.05,0.08,0.12,0.11,0.19c0.02,0.07,0.03,0.15,0.03,0.23c0,0.07-0.01,0.15-0.03,0.22c-0.02,0.08-0.05,0.14-0.1,0.2
					c-0.05,0.06-0.11,0.11-0.18,0.14c-0.07,0.04-0.16,0.06-0.27,0.06h-0.57c-0.03,0-0.05,0.02-0.05,0.05v0.72h-0.32v-0.79
					c0-0.11,0.02-0.19,0.07-0.24c0.05-0.05,0.12-0.07,0.22-0.07h0.66c0.04,0,0.08-0.01,0.12-0.02c0.03-0.02,0.06-0.04,0.08-0.06
					c0.02-0.03,0.03-0.05,0.04-0.09c0.01-0.03,0.01-0.07,0.01-0.1c0-0.07-0.02-0.14-0.06-0.19c-0.04-0.05-0.1-0.08-0.19-0.08h-0.95
					v-0.35H49.32z"/>
				<path style="fill:#FFFFFF;" d="M51.2,95.92c0.1,0,0.19,0.02,0.26,0.05s0.13,0.08,0.18,0.13c0.05,0.05,0.08,0.12,0.1,0.19
					c0.02,0.07,0.03,0.15,0.03,0.23c0,0.06-0.01,0.13-0.02,0.19c-0.01,0.06-0.04,0.12-0.07,0.17c-0.03,0.05-0.07,0.1-0.12,0.14
					c-0.05,0.04-0.11,0.07-0.18,0.09l0.42,0.8h-0.35l-0.42-0.77h-0.47c-0.03,0-0.05,0.02-0.05,0.05v0.72h-0.32v-0.79
					c0-0.11,0.02-0.19,0.07-0.24c0.05-0.05,0.12-0.07,0.22-0.07h0.71c0.05,0,0.08-0.01,0.12-0.02c0.03-0.02,0.06-0.04,0.08-0.06
					c0.02-0.03,0.03-0.06,0.04-0.09c0.01-0.03,0.01-0.07,0.01-0.1c0-0.07-0.02-0.13-0.06-0.18c-0.04-0.05-0.1-0.08-0.19-0.08h-1
					v-0.35H51.2z"/>
				<path style="fill:#FFFFFF;" d="M53.11,95.92c0.27,0,0.47,0.08,0.61,0.25c0.14,0.17,0.21,0.42,0.21,0.75
					c0,0.33-0.07,0.58-0.21,0.75c-0.14,0.16-0.34,0.25-0.61,0.25h-0.25c-0.27,0-0.47-0.08-0.61-0.25c-0.14-0.16-0.21-0.41-0.21-0.75
					c0-0.34,0.07-0.59,0.21-0.75c0.14-0.17,0.35-0.25,0.61-0.25H53.11z M52.86,96.27c-0.18,0-0.3,0.05-0.38,0.15
					c-0.08,0.1-0.12,0.27-0.12,0.5c0,0.23,0.04,0.39,0.12,0.49c0.08,0.1,0.21,0.15,0.39,0.15h0.25c0.17,0,0.3-0.05,0.38-0.15
					c0.08-0.1,0.12-0.27,0.12-0.5c0-0.23-0.04-0.39-0.12-0.5c-0.08-0.1-0.21-0.15-0.38-0.15H52.86z"/>
				<path style="fill:#FFFFFF;" d="M55.1,95.92c0.27,0,0.47,0.08,0.61,0.25c0.14,0.16,0.21,0.41,0.21,0.75
					c0,0.34-0.07,0.59-0.21,0.75c-0.14,0.16-0.34,0.25-0.61,0.25h-0.64c-0.1,0-0.15-0.05-0.15-0.16v-1.67
					c0-0.11,0.05-0.16,0.15-0.16H55.1z M54.63,97.54c0,0.02,0.01,0.04,0.04,0.04h0.44c0.18,0,0.3-0.05,0.38-0.15
					c0.08-0.1,0.12-0.27,0.12-0.5c0-0.23-0.04-0.39-0.12-0.5c-0.08-0.1-0.21-0.15-0.38-0.15h-0.44c-0.02,0-0.04,0.01-0.04,0.04
					V97.54z"/>
				<path style="fill:#FFFFFF;" d="M56.61,95.92v1.33c0,0.1,0.02,0.18,0.07,0.23c0.05,0.05,0.12,0.08,0.23,0.08h0.32
					c0.1,0,0.18-0.03,0.23-0.08c0.05-0.05,0.07-0.13,0.07-0.23v-1.33h0.31v1.36c0,0.21-0.05,0.37-0.15,0.48
					c-0.1,0.11-0.25,0.16-0.44,0.16h-0.38c-0.39,0-0.59-0.21-0.59-0.64v-1.36H56.61z"/>
				<path style="fill:#FFFFFF;" d="M59.73,95.92v0.35h-0.7c-0.18,0-0.3,0.05-0.38,0.15c-0.08,0.1-0.12,0.27-0.12,0.5
					c0,0.23,0.04,0.39,0.12,0.5c0.08,0.1,0.21,0.15,0.39,0.15h0.7v0.35h-0.7c-0.27,0-0.47-0.08-0.61-0.25
					c-0.14-0.16-0.21-0.41-0.21-0.75c0-0.34,0.07-0.59,0.21-0.75c0.14-0.16,0.35-0.25,0.61-0.25H59.73z"/>
				<path style="fill:#FFFFFF;" d="M61.35,95.92v0.35h-0.53v1.65H60.5v-1.65h-0.53v-0.35H61.35z"/>
				<path style="fill:#FFFFFF;" d="M63.04,95.92v0.35H62.1c-0.08,0-0.14,0.02-0.18,0.07c-0.04,0.05-0.06,0.1-0.06,0.17
					c0,0.03,0,0.06,0.01,0.09c0.01,0.03,0.02,0.05,0.04,0.08c0.02,0.02,0.05,0.04,0.08,0.05c0.03,0.01,0.08,0.02,0.13,0.02h0.43
					c0.12,0,0.23,0.02,0.31,0.05c0.08,0.03,0.14,0.08,0.19,0.14c0.05,0.06,0.08,0.12,0.09,0.19s0.03,0.14,0.03,0.21
					c0,0.08-0.01,0.16-0.03,0.23c-0.02,0.07-0.06,0.13-0.1,0.18c-0.05,0.05-0.11,0.09-0.18,0.12c-0.07,0.03-0.16,0.04-0.27,0.04
					h-1.01v-0.35h1.02c0.09,0,0.15-0.02,0.19-0.07c0.04-0.05,0.06-0.11,0.06-0.18c0-0.03,0-0.06-0.01-0.09
					c-0.01-0.03-0.02-0.06-0.05-0.08s-0.05-0.04-0.09-0.06c-0.04-0.01-0.08-0.02-0.14-0.02h-0.42c-0.12,0-0.22-0.02-0.3-0.05
					c-0.08-0.03-0.14-0.08-0.18-0.13c-0.04-0.06-0.07-0.12-0.09-0.19c-0.02-0.07-0.03-0.14-0.03-0.21c0-0.08,0.01-0.16,0.03-0.23
					c0.02-0.07,0.05-0.13,0.1-0.18c0.05-0.05,0.1-0.09,0.18-0.12c0.07-0.03,0.16-0.04,0.26-0.04H63.04z"/>
				<path style="fill:#FFFFFF;" d="M65.16,95.68c0.08,0,0.14,0.01,0.2,0.04c0.06,0.03,0.1,0.06,0.14,0.11
					c0.04,0.05,0.07,0.1,0.08,0.16c0.02,0.06,0.03,0.13,0.03,0.2c0,0.11-0.03,0.21-0.08,0.29c-0.05,0.08-0.14,0.15-0.26,0.22
					l-0.17,0.09l0.32,0.4l0.24-0.35H66l-0.39,0.57l0.4,0.5h-0.36l-0.21-0.26c-0.05,0.06-0.09,0.1-0.13,0.14
					c-0.04,0.03-0.08,0.06-0.12,0.08c-0.04,0.02-0.08,0.03-0.12,0.04c-0.04,0.01-0.09,0.01-0.13,0.01h-0.31
					c-0.06,0-0.13-0.01-0.18-0.03c-0.06-0.02-0.11-0.06-0.15-0.1c-0.04-0.05-0.08-0.1-0.1-0.17c-0.03-0.07-0.04-0.15-0.04-0.25
					c0-0.07,0.01-0.12,0.02-0.18c0.01-0.05,0.04-0.1,0.08-0.15c0.04-0.05,0.08-0.09,0.15-0.14c0.06-0.04,0.14-0.09,0.23-0.14
					l0.08-0.04l-0.09-0.12c-0.05-0.06-0.08-0.12-0.11-0.19c-0.03-0.07-0.04-0.15-0.04-0.23c0-0.07,0.01-0.13,0.03-0.2
					c0.02-0.06,0.05-0.12,0.09-0.16c0.04-0.05,0.09-0.08,0.14-0.11c0.06-0.03,0.12-0.04,0.2-0.04H65.16z M64.93,97.62
					c0.06,0,0.12-0.01,0.16-0.04c0.05-0.02,0.1-0.07,0.16-0.15l-0.41-0.51l-0.09,0.05c-0.06,0.04-0.12,0.07-0.16,0.09
					c-0.04,0.03-0.07,0.05-0.1,0.08c-0.02,0.03-0.04,0.05-0.05,0.08c-0.01,0.03-0.01,0.06-0.01,0.09c0,0.09,0.02,0.16,0.06,0.21
					c0.04,0.05,0.1,0.08,0.18,0.08H64.93z M64.75,96.22c0,0.05,0.01,0.1,0.03,0.14c0.02,0.04,0.05,0.08,0.08,0.12l0.09,0.12
					l0.17-0.09c0.07-0.04,0.12-0.07,0.16-0.12c0.03-0.04,0.05-0.1,0.05-0.17c0-0.06-0.02-0.12-0.05-0.17
					c-0.03-0.05-0.08-0.07-0.16-0.07h-0.16c-0.07,0-0.13,0.02-0.16,0.07C64.77,96.09,64.75,96.15,64.75,96.22z"/>
				<path style="fill:#FFFFFF;" d="M68.43,95.92v0.35H67.5c-0.08,0-0.14,0.02-0.18,0.07c-0.04,0.05-0.06,0.1-0.06,0.17
					c0,0.03,0,0.06,0.01,0.09c0.01,0.03,0.02,0.05,0.04,0.08c0.02,0.02,0.05,0.04,0.08,0.05c0.03,0.01,0.08,0.02,0.13,0.02h0.43
					c0.12,0,0.23,0.02,0.31,0.05c0.08,0.03,0.14,0.08,0.19,0.14s0.08,0.12,0.09,0.19s0.03,0.14,0.03,0.21
					c0,0.08-0.01,0.16-0.03,0.23c-0.02,0.07-0.06,0.13-0.1,0.18c-0.05,0.05-0.11,0.09-0.18,0.12s-0.16,0.04-0.27,0.04h-1.01v-0.35
					H68c0.09,0,0.15-0.02,0.19-0.07c0.04-0.05,0.06-0.11,0.06-0.18c0-0.03,0-0.06-0.01-0.09c-0.01-0.03-0.02-0.06-0.05-0.08
					c-0.02-0.02-0.05-0.04-0.09-0.06c-0.04-0.01-0.08-0.02-0.14-0.02h-0.42c-0.12,0-0.22-0.02-0.3-0.05
					c-0.08-0.03-0.14-0.08-0.18-0.13s-0.07-0.12-0.09-0.19c-0.02-0.07-0.03-0.14-0.03-0.21c0-0.08,0.01-0.16,0.03-0.23
					c0.02-0.07,0.05-0.13,0.1-0.18c0.05-0.05,0.1-0.09,0.18-0.12c0.07-0.03,0.16-0.04,0.26-0.04H68.43z"/>
				<path style="fill:#FFFFFF;" d="M70.38,95.92v0.35h-0.91c-0.1,0-0.17,0.02-0.21,0.07c-0.04,0.05-0.06,0.11-0.06,0.18
					c0,0.16,0.09,0.24,0.28,0.24h0.9v0.32h-0.9c-0.18,0-0.28,0.08-0.28,0.24c0,0.08,0.02,0.14,0.07,0.18
					c0.05,0.04,0.11,0.07,0.21,0.07h0.92v0.35h-0.92c-0.11,0-0.2-0.01-0.28-0.04c-0.08-0.03-0.14-0.07-0.19-0.11
					c-0.05-0.05-0.09-0.11-0.11-0.17c-0.02-0.07-0.03-0.14-0.03-0.22c0-0.12,0.02-0.21,0.07-0.29c0.05-0.08,0.11-0.13,0.19-0.17
					c-0.17-0.08-0.26-0.23-0.26-0.45c0-0.08,0.01-0.15,0.03-0.22c0.02-0.07,0.06-0.12,0.11-0.17c0.05-0.05,0.11-0.09,0.19-0.11
					c0.08-0.03,0.17-0.04,0.28-0.04H70.38z"/>
				<path style="fill:#FFFFFF;" d="M71.78,95.92c0.1,0,0.19,0.02,0.26,0.05s0.13,0.08,0.18,0.13c0.05,0.05,0.08,0.12,0.1,0.19
					c0.02,0.07,0.03,0.15,0.03,0.23c0,0.06-0.01,0.13-0.02,0.19c-0.01,0.06-0.04,0.12-0.07,0.17c-0.03,0.05-0.07,0.1-0.12,0.14
					c-0.05,0.04-0.11,0.07-0.18,0.09l0.42,0.8h-0.35l-0.42-0.77h-0.47c-0.03,0-0.05,0.02-0.05,0.05v0.72h-0.32v-0.79
					c0-0.11,0.02-0.19,0.07-0.24c0.05-0.05,0.12-0.07,0.22-0.07h0.71c0.05,0,0.08-0.01,0.12-0.02c0.03-0.02,0.06-0.04,0.08-0.06
					c0.02-0.03,0.03-0.06,0.04-0.09c0.01-0.03,0.01-0.07,0.01-0.1c0-0.07-0.02-0.13-0.06-0.18c-0.04-0.05-0.1-0.08-0.19-0.08h-1
					v-0.35H71.78z"/>
				<path style="fill:#FFFFFF;" d="M72.81,95.92l0.55,1.61c0.02,0.05,0.05,0.07,0.09,0.07c0.04,0,0.07-0.02,0.09-0.07l0.58-1.61
					h0.35l-0.64,1.77c-0.03,0.09-0.08,0.16-0.14,0.2c-0.06,0.04-0.14,0.06-0.24,0.06c-0.09,0-0.17-0.02-0.23-0.06
					c-0.07-0.04-0.12-0.1-0.15-0.2l-0.61-1.77H72.81z"/>
				<path style="fill:#FFFFFF;" d="M75.07,95.92v2h-0.32v-2H75.07z"/>
				<path style="fill:#FFFFFF;" d="M76.96,95.92v0.35h-0.7c-0.18,0-0.3,0.05-0.38,0.15c-0.08,0.1-0.12,0.27-0.12,0.5
					c0,0.23,0.04,0.39,0.12,0.5c0.08,0.1,0.21,0.15,0.39,0.15h0.7v0.35h-0.7c-0.27,0-0.47-0.08-0.61-0.25
					c-0.14-0.16-0.21-0.41-0.21-0.75c0-0.34,0.07-0.59,0.21-0.75c0.14-0.16,0.35-0.25,0.61-0.25H76.96z"/>
				<path style="fill:#FFFFFF;" d="M78.8,95.92v0.35h-0.91c-0.1,0-0.17,0.02-0.21,0.07c-0.04,0.05-0.06,0.11-0.06,0.18
					c0,0.16,0.09,0.24,0.28,0.24h0.9v0.32h-0.9c-0.18,0-0.28,0.08-0.28,0.24c0,0.08,0.02,0.14,0.07,0.18
					c0.05,0.04,0.11,0.07,0.21,0.07h0.92v0.35h-0.92c-0.11,0-0.2-0.01-0.28-0.04c-0.08-0.03-0.14-0.07-0.19-0.11
					c-0.05-0.05-0.09-0.11-0.11-0.17c-0.02-0.07-0.03-0.14-0.03-0.22c0-0.12,0.02-0.21,0.07-0.29c0.05-0.08,0.11-0.13,0.19-0.17
					c-0.17-0.08-0.26-0.23-0.26-0.45c0-0.08,0.01-0.15,0.03-0.22c0.02-0.07,0.06-0.12,0.11-0.17c0.05-0.05,0.11-0.09,0.19-0.11
					c0.08-0.03,0.17-0.04,0.28-0.04H78.8z"/>
				<path style="fill:#FFFFFF;" d="M80.62,95.92v0.35h-0.93c-0.08,0-0.14,0.02-0.18,0.07c-0.04,0.05-0.06,0.1-0.06,0.17
					c0,0.03,0,0.06,0.01,0.09c0.01,0.03,0.02,0.05,0.04,0.08c0.02,0.02,0.05,0.04,0.08,0.05c0.03,0.01,0.08,0.02,0.13,0.02h0.43
					c0.12,0,0.23,0.02,0.31,0.05c0.08,0.03,0.14,0.08,0.19,0.14s0.08,0.12,0.09,0.19s0.03,0.14,0.03,0.21
					c0,0.08-0.01,0.16-0.03,0.23c-0.02,0.07-0.06,0.13-0.1,0.18c-0.05,0.05-0.11,0.09-0.18,0.12s-0.16,0.04-0.27,0.04h-1.01v-0.35
					h1.02c0.09,0,0.15-0.02,0.19-0.07c0.04-0.05,0.06-0.11,0.06-0.18c0-0.03,0-0.06-0.01-0.09c-0.01-0.03-0.02-0.06-0.05-0.08
					s-0.05-0.04-0.09-0.06c-0.04-0.01-0.08-0.02-0.14-0.02h-0.42c-0.12,0-0.22-0.02-0.3-0.05c-0.08-0.03-0.14-0.08-0.18-0.13
					s-0.07-0.12-0.09-0.19c-0.02-0.07-0.03-0.14-0.03-0.21c0-0.08,0.01-0.16,0.03-0.23c0.02-0.07,0.05-0.13,0.1-0.18
					c0.05-0.05,0.1-0.09,0.18-0.12c0.07-0.03,0.16-0.04,0.26-0.04H80.62z"/>
			</g>
			<g>
				<path style="fill:#FFFFFF;" d="M48.26,88.81v3.84c0,0.29,0.07,0.51,0.22,0.67c0.15,0.16,0.39,0.23,0.72,0.23h1.01
					c0.32,0,0.56-0.08,0.71-0.23c0.15-0.16,0.23-0.38,0.23-0.67v-3.84h0.98v3.92c0,0.61-0.15,1.07-0.46,1.37
					c-0.31,0.31-0.77,0.46-1.38,0.46h-1.19c-1.22,0-1.83-0.61-1.83-1.83v-3.92H48.26z"/>
				<path style="fill:#FFFFFF;" d="M54.43,94.57h-0.99v-4.6c0-0.37,0.11-0.68,0.32-0.91c0.21-0.23,0.54-0.35,0.98-0.35
					c0.39,0,0.69,0.1,0.9,0.29c0.2,0.19,0.37,0.45,0.48,0.78l1.66,3.67c0.03,0.07,0.08,0.13,0.13,0.17
					c0.06,0.05,0.13,0.07,0.23,0.07c0.11,0,0.19-0.03,0.25-0.09s0.09-0.14,0.09-0.23v-4.55h1v4.59c0,0.38-0.11,0.69-0.32,0.92
					c-0.22,0.23-0.54,0.35-0.98,0.35c-0.2,0-0.37-0.02-0.52-0.07c-0.15-0.05-0.28-0.12-0.39-0.21c-0.11-0.09-0.2-0.21-0.28-0.34
					c-0.08-0.13-0.15-0.28-0.2-0.44l-1.66-3.67c-0.07-0.16-0.19-0.25-0.35-0.25c-0.11,0-0.2,0.03-0.26,0.09
					c-0.06,0.06-0.09,0.14-0.09,0.24V94.57z"/>
				<path style="fill:#FFFFFF;" d="M61.83,88.81v5.75h-0.99v-5.75H61.83z"/>
				<path style="fill:#F5BF19;" d="M67.6,88.81v1.01h-2.29c-0.22,0-0.41,0.02-0.56,0.08c-0.15,0.05-0.27,0.12-0.36,0.21
					c-0.09,0.09-0.15,0.19-0.19,0.31c-0.04,0.12-0.05,0.24-0.05,0.38v0.54h3.42v0.95h-3.42v2.27h-0.99V90.8
					c0-0.29,0.04-0.55,0.11-0.8c0.08-0.24,0.2-0.45,0.37-0.63c0.17-0.18,0.39-0.31,0.65-0.41c0.27-0.1,0.59-0.15,0.96-0.15H67.6z"/>
				<path style="fill:#FFFFFF;" d="M69.77,88.81v5.75h-0.99v-5.75H69.77z"/>
				<path style="fill:#FFFFFF;" d="M75.67,88.81v1.01h-2.84c-0.3,0-0.52,0.06-0.66,0.2c-0.13,0.13-0.2,0.31-0.2,0.53
					c0,0.45,0.29,0.68,0.87,0.68h2.79v0.91h-2.82c-0.58,0-0.87,0.23-0.87,0.7c0,0.23,0.07,0.41,0.21,0.53
					c0.14,0.13,0.36,0.19,0.65,0.19h2.88v1.01H72.8c-0.34,0-0.62-0.04-0.86-0.12s-0.43-0.19-0.59-0.33
					c-0.15-0.14-0.27-0.31-0.34-0.5c-0.07-0.19-0.11-0.4-0.11-0.62c0-0.33,0.07-0.6,0.21-0.82c0.14-0.22,0.34-0.39,0.61-0.5
					c-0.53-0.22-0.8-0.65-0.8-1.3c0-0.23,0.04-0.44,0.11-0.63c0.07-0.19,0.19-0.36,0.34-0.5c0.15-0.14,0.35-0.25,0.59-0.32
					c0.24-0.08,0.53-0.11,0.86-0.11H75.67z"/>
				<path style="fill:#FFFFFF;" d="M79.44,88.81c0.84,0,1.47,0.24,1.9,0.71c0.43,0.47,0.65,1.2,0.65,2.17
					c0,0.97-0.22,1.69-0.65,2.16c-0.43,0.47-1.07,0.71-1.9,0.71h-2c-0.31,0-0.47-0.16-0.47-0.47v-4.81c0-0.31,0.16-0.47,0.47-0.47
					H79.44z M77.96,93.46c0,0.07,0.04,0.1,0.11,0.1h1.37c0.55,0,0.95-0.15,1.19-0.44c0.25-0.3,0.37-0.77,0.37-1.43
					c0-0.66-0.12-1.13-0.37-1.43c-0.24-0.29-0.64-0.44-1.2-0.44h-1.37c-0.07,0-0.11,0.03-0.11,0.1V93.46z"/>
			</g>
			<g id="Outline">
				<g>
					<path style="fill-rule:evenodd;clip-rule:evenodd;fill:#F5BF19;" d="M64.57,67c-12.44,0-22.52,10.07-22.52,22.5
						S52.14,112,64.57,112s22.52-10.07,22.52-22.5S77.01,67,64.57,67z M64.57,109.53c-11.07,0-20.05-8.97-20.05-20.03
						s8.98-20.03,20.05-20.03s20.05,8.97,20.05,20.03S75.65,109.53,64.57,109.53z"/>
				</g>
			</g>
			<g id="Signal_Bar">
				<g>
					<path style="fill-rule:evenodd;clip-rule:evenodd;fill:#F5BF19;" d="M59.14,84.05l1.75,1.75c0.95-0.93,2.25-1.51,3.69-1.51
						s2.74,0.58,3.69,1.51l1.75-1.75c-1.39-1.38-3.31-2.24-5.43-2.24S60.53,82.67,59.14,84.05z M55.65,80.56l1.75,1.75
						c1.84-1.83,4.38-2.96,7.18-2.96s5.34,1.13,7.18,2.96l1.75-1.75c-2.29-2.28-5.44-3.68-8.92-3.68S57.94,78.28,55.65,80.56z
						 M64.57,71.94c-4.85,0-9.24,1.96-12.42,5.13l1.75,1.75c2.73-2.72,6.5-4.41,10.67-4.41s7.94,1.68,10.67,4.41l1.75-1.75
						C73.81,73.9,69.42,71.94,64.57,71.94z"/>
				</g>
			</g>
			<g>
				<path style="fill:#FFFFFF;" d="M80.71,108.85c0,0.66-0.52,1.18-1.19,1.18c-0.67,0-1.2-0.52-1.2-1.18c0-0.65,0.53-1.16,1.2-1.16
					C80.19,107.68,80.71,108.2,80.71,108.85z M78.62,108.85c0,0.52,0.38,0.93,0.91,0.93c0.51,0,0.89-0.41,0.89-0.92
					c0-0.52-0.38-0.94-0.89-0.94C79,107.92,78.62,108.34,78.62,108.85z M79.33,109.46h-0.27v-1.16c0.11-0.02,0.26-0.04,0.45-0.04
					c0.22,0,0.32,0.04,0.4,0.09c0.06,0.05,0.11,0.14,0.11,0.26c0,0.13-0.1,0.23-0.24,0.27v0.01c0.11,0.04,0.18,0.13,0.21,0.28
					c0.04,0.18,0.06,0.25,0.09,0.29h-0.29c-0.04-0.04-0.06-0.15-0.09-0.28c-0.02-0.13-0.09-0.18-0.24-0.18h-0.13V109.46z
					 M79.34,108.8h0.13c0.15,0,0.27-0.05,0.27-0.17c0-0.11-0.08-0.18-0.25-0.18c-0.07,0-0.12,0.01-0.15,0.01V108.8z"/>
			</g>
		</g>
		<polyline style="fill:#F4BF1A;" points="0,59.43 63.99,0 128,59.43 		"/>
		<polygon style="fill:#E4A515;" points="64,0 98.37,51.82 78.32,59.43 128,59.43 		"/>
	</g>
</g>
<g id="Layer_4">
</g>
<g id="Layer_5">
</g>
<g id="Layer_8">
</g>
</svg>
