<svg id="Layer_1" data-name="Layer 1" xmlns="http://www.w3.org/2000/svg" viewBox="0 0 45 45"><defs><style>.cls-1{fill:#f6c933;}</style></defs><title>Icons</title><path id="Path_4760" data-name="Path 4760" class="cls-1" d="M11.86,23.67,18,25.31a.77.77,0,0,0,.94-.54h0L19.67,22a3.6,3.6,0,0,0-2.54-4.4L11,16a.76.76,0,0,0-.93.54h0l-.74,2.74A3.6,3.6,0,0,0,11.86,23.67Zm-1.07-4,.53-2,5.41,1.44a2.07,2.07,0,0,1,1.46,2.53l-.53,2L12.25,22.2A2.07,2.07,0,0,1,10.79,19.67Z"/><path id="Path_4761" data-name="Path 4761" class="cls-1" d="M26.91,25.34a.64.64,0,0,0,.2,0l6.15-1.64a3.61,3.61,0,0,0,2.54-4.4l-.73-2.73a.78.78,0,0,0-.94-.55h0L28,17.64A3.59,3.59,0,0,0,25.45,22l.73,2.73A.76.76,0,0,0,26.91,25.34Zm.22-5.26a2,2,0,0,1,1.25-1l5.41-1.44.53,2a2.07,2.07,0,0,1-1.46,2.53l-5.41,1.44-.53-2a2.07,2.07,0,0,1,.21-1.56Z"/><path id="Path_4762" data-name="Path 4762" class="cls-1" d="M40.47,15.6c1.87-3.1,1.33-4.15-.7-7.09a.76.76,0,0,0-1.06-.2.88.88,0,0,0-.3.39c-.68,2.07-2.7,3.27-5.13,4.09a16.28,16.28,0,0,0,.16-3c-.1-2.09-.62-2.4-.81-2.51-.54-.32-1.53-.07-3,.75a16.06,16.06,0,0,0-2.89,2.17,19.09,19.09,0,0,0-1.17-3.11,14.18,14.18,0,0,0-1.49-2.48c-.79-1-1.25-1.15-1.57-1.15s-.79.13-1.58,1.15A14.77,14.77,0,0,0,19.5,7.13a19.09,19.09,0,0,0-1.17,3.11,16.06,16.06,0,0,0-2.89-2.17C14,7.25,13,7,12.49,7.32c-.19.11-.7.42-.81,2.51a15.43,15.43,0,0,0,.16,3C9.41,12,7.39,10.78,6.7,8.7a.75.75,0,0,0-1-.48.71.71,0,0,0-.39.29c-2,2.94-2.57,4-.7,7.09l-.56,2.09a6.93,6.93,0,0,0,0,3.56.77.77,0,0,0,.94.54.77.77,0,0,0,.54-.94h0a5.21,5.21,0,0,1,0-2.77l.64-2.4a.79.79,0,0,0-.09-.6c-1.39-2.22-1.42-2.81-.26-4.6a8.51,8.51,0,0,0,4.05,3.2,20.81,20.81,0,0,0,2.65.93l.1,0c1.33.37,2.7.67,4,.94,1.07.22,2.07.44,3,.68A5.28,5.28,0,0,1,22,17.65a.76.76,0,0,0,.55.23h0a.79.79,0,0,0,.54-.22,5.24,5.24,0,0,1,2.42-1.4c.43-.12.9-.23,1.37-.34h0l1.58-.34c1.28-.27,2.64-.56,4-.94a.2.2,0,0,0,.11,0,21.82,21.82,0,0,0,2.65-.92,8.63,8.63,0,0,0,4-3.2c1.17,1.78,1.13,2.37-.26,4.59a.79.79,0,0,0-.09.6l.65,2.4a5.41,5.41,0,0,1-1.67,5.46l-.06.05a5.4,5.4,0,0,1-2.09,1.1l-10,2.68-.06,0A5.42,5.42,0,0,0,23,29.65q-.22.33-.45.6c-.14-.18-.29-.38-.44-.6a5.42,5.42,0,0,0-2.67-2.26l-.06,0L14,25.94,9.78,24.8a.77.77,0,0,0-.94.53.76.76,0,0,0,.53.94h0l4.26,1.14L19,28.84a4,4,0,0,1,1.9,1.7,5.86,5.86,0,0,0,1.25,1.38.74.74,0,0,0,.89,0,5.67,5.67,0,0,0,1.25-1.38,4,4,0,0,1,1.91-1.7l7.78-2.09v3.34a.76.76,0,0,0,.76.76h0a.76.76,0,0,0,.76-.76h0V26.34l.66-.17a6.84,6.84,0,0,0,1.46-.58V39.7a1.07,1.07,0,0,1-2.13,0V36.89a.76.76,0,1,0-1.52,0V39.7a2.59,2.59,0,0,0,5.18,0V24.48A6.93,6.93,0,0,0,41,17.69Zm-27-2.32a12.21,12.21,0,0,1-.13-4.51A12.35,12.35,0,0,1,17.91,12a16.91,16.91,0,0,0-.27,2.24L17,14.08c-1.14-.24-2.33-.49-3.48-.8Zm11.65,1.5a6.85,6.85,0,0,0-2.56,1.31A7,7,0,0,0,20,14.78l-.84-.21A17.85,17.85,0,0,1,19.47,12s0,0,0-.08a18.2,18.2,0,0,1,1.22-3.72,11,11,0,0,1,1.85-3,11.24,11.24,0,0,1,1.85,3A17.38,17.38,0,0,1,26,14.57l-.84.21Zm3-.7-.69.15A16.91,16.91,0,0,0,27.2,12a12.27,12.27,0,0,1,4.57-3.22,12.21,12.21,0,0,1-.13,4.51c-1.14.31-2.33.56-3.48.8Z"/><path id="Path_4763" data-name="Path 4763" class="cls-1" d="M34.7,34.25a.77.77,0,0,0,.77-.76h0a.77.77,0,0,0-.77-.76.76.76,0,1,0,0,1.52Z"/><path id="Path_4764" data-name="Path 4764" class="cls-1" d="M7.14,23.45a.77.77,0,0,0-1.08,0,.76.76,0,0,0,0,1.08.78.78,0,0,0,1.08,0,.76.76,0,0,0,0-1.08Z" fill="#f4bf1a"/></svg>