<svg id="Layer_1" data-name="Layer 1" xmlns="http://www.w3.org/2000/svg" viewBox="0 0 45 47"><defs><style>.cls-1{fill:#f6c933;}</style></defs><title>Icons</title><path id="Path_4766" data-name="Path 4766" class="cls-1" d="M39.93,18.64a7.1,7.1,0,0,0-2.16-1.42A15.21,15.21,0,0,0,8.1,15.69a2.25,2.25,0,0,0-2.34,2.18v6a1.5,1.5,0,0,0-.9,1.37v3.32a1.52,1.52,0,0,0-1.36,1.5V40.77A2.26,2.26,0,0,0,5.76,43h6.92a2.26,2.26,0,0,0,2.26-2.26v-8a15,15,0,0,0,5.57,2v3.78h-.36a3.76,3.76,0,0,0-3.77,3.77.75.75,0,0,0,.75.75H28.4a.75.75,0,0,0,.75-.75,3.76,3.76,0,0,0-3.76-3.77H25V34.73a15.08,15.08,0,0,0,5.9-2.2v7.52a3,3,0,0,0,3,3h2.22a3,3,0,0,0,3-3V31.19l2.23-4.54A6.87,6.87,0,0,0,39.93,18.64Zm-32.67-.7A.76.76,0,0,1,8,17.19a.73.73,0,0,1,.35.09l2.41,1.29a.75.75,0,0,1,.4.66v4.53H7.26Zm-.9,7.32h5.72v3.32H6.36Zm7.08,15.5a.76.76,0,0,1-.76.76H5.76A.77.77,0,0,1,5,40.76V30.08h8.44V40.77Zm12-.75a2.26,2.26,0,0,1,2.14,1.51H18A2.26,2.26,0,0,1,20.15,40ZM22,38.5V34.88l.74,0H23l.55,0v3.63H22Zm-7.08-7.56v-.86a1.52,1.52,0,0,0-1.36-1.5V25.26a1.5,1.5,0,0,0-.9-1.37V19.24a2.21,2.21,0,0,0-1.19-2l-2-1.06a13.7,13.7,0,0,1,26.63.59,6.81,6.81,0,0,0-2.16,0,11.59,11.59,0,0,0-21.17-3.06.76.76,0,0,0,.28,1,.75.75,0,0,0,1-.26A10.11,10.11,0,0,1,25.57,10L20,15.56a.75.75,0,1,0,1,1.14l.08-.08,6-6a10.33,10.33,0,0,1,2.6,1.8L20,22.06a.75.75,0,1,0,1,1.09l0,0,9.62-9.62a10.14,10.14,0,0,1,1.81,3.7,7.1,7.1,0,0,0-2.2,1.44l-.08.08a6.89,6.89,0,0,0-1.47,7.85l.41.89a10.1,10.1,0,0,1-11.9.71.75.75,0,1,0-.86,1.23l0,0a11.6,11.6,0,0,0,13.37-.57l.9,2A13.81,13.81,0,0,1,14.94,30.94Zm22.64,9.11a1.47,1.47,0,0,1-1.47,1.47H33.89a1.47,1.47,0,0,1-1.47-1.47V35.34h5.16v4.71Zm0-6.22H32.42V31.75h5.16ZM40,26l-2.1,4.27h-.38V27.16a.76.76,0,0,0-1.51,0v3.09H32.15l-2-4.31a5.38,5.38,0,0,1,1.15-6.13l.08-.09A5.39,5.39,0,0,1,40,26Z" fill="#f4bf1a"/></svg>