<svg id="Layer_1" data-name="Layer 1" xmlns="http://www.w3.org/2000/svg" viewBox="0 0 43 41"><defs><style>.cls-1{fill:#f6c933;}</style></defs><title>Icons</title><path id="Path_4753" data-name="Path 4753" class="cls-1" d="M38,20.71h-.62V7.61A3.12,3.12,0,0,0,34.3,4.5H8.11A3.13,3.13,0,0,0,5,7.62V17H4.37A1.87,1.87,0,0,0,2.5,18.84V35.06a1.87,1.87,0,0,0,1.87,1.87h23.7a.63.63,0,0,0,.63-.63h0a3.12,3.12,0,0,0-3.12-3.11H23.7V29.44h7.48v5.62a1.87,1.87,0,0,0,1.87,1.87h5a1.87,1.87,0,0,0,1.87-1.87V22.58A1.87,1.87,0,0,0,38,20.71ZM16.22,35.06a.62.62,0,0,1-.62.62H4.37a.62.62,0,0,1-.62-.62h0v-.63H16.22Zm0-1.87H3.75V18.84a.62.62,0,0,1,.62-.62H15.6a.62.62,0,0,1,.62.62h0Zm9.35,1.24a1.88,1.88,0,0,1,1.77,1.25h-10a1.9,1.9,0,0,0,.12-.62v-.63Zm-8.1-1.24V29.44h1.24v3.75Zm2.49,0V29.44h2.49v3.75Zm11.22-5H17.47V24.46H31.18Zm0-5.61v.62H17.47V18.84a2,2,0,0,0-.22-.85l0,0,6.18-6.17a.63.63,0,0,0,0-.88.61.61,0,0,0-.85,0L16.4,17.09s0,0,0,.05a1.92,1.92,0,0,0-.78-.17H6.24V7.62A1.87,1.87,0,0,1,8.11,5.75H34.3a1.87,1.87,0,0,1,1.87,1.87v13.1H33.06a1.87,1.87,0,0,0-1.88,1.86Zm7.49,12.47a.63.63,0,0,1-.63.62h-5a.63.63,0,0,1-.63-.62h0v-.62h6.24Zm0-1.87H32.43V22.59a.62.62,0,0,1,.63-.62h5a.62.62,0,0,1,.63.62h0Z" fill="#f4bf1a"/></svg>