<svg id="Layer_1" data-name="Layer 1" xmlns="http://www.w3.org/2000/svg" viewBox="0 0 37 41"><defs><style>.cls-1{fill:#f6c933;}</style></defs><title>Icons</title><path id="Path_4775" data-name="Path 4775" class="cls-1" d="M32.62,32.8,30.68,10.94a.93.93,0,0,0-.93-.85h-4a6.7,6.7,0,0,0-13.39,0h-4a.93.93,0,0,0-.93.85L5.51,32.79s0,.06,0,.09a4.83,4.83,0,0,0,5.09,4.51h17a4.82,4.82,0,0,0,5.08-4.51A.21.21,0,0,0,32.62,32.8ZM19.06,5.37a4.83,4.83,0,0,1,4.83,4.72H14.24A4.83,4.83,0,0,1,19.06,5.37Zm8.48,30.15H10.59a3,3,0,0,1-3.22-2.6L9.23,12h3.13v2.84a.94.94,0,0,0,1.87,0V12h9.66v2.84a.93.93,0,0,0,.9,1,1,1,0,0,0,1-.91V12h3.13l1.86,21a3,3,0,0,1-3.21,2.6Z" fill="#f4bf1a"/></svg>