<svg id="Layer_1" data-name="Layer 1" xmlns="http://www.w3.org/2000/svg" viewBox="0 0 53 36"><defs><style>.cls-1{fill:#f6c933;}</style></defs><title>Icons</title><path id="Path_4776" data-name="Path 4776" class="cls-1" d="M47.31,11.71h-.94V8.23A3.73,3.73,0,0,0,42.64,4.5H29.11a3.74,3.74,0,0,0-3,1.57A3.74,3.74,0,0,0,23,4.5h-8.5a.69.69,0,0,0,0,1.38H23a2.35,2.35,0,0,1,2.35,2.35v6.91l0,0a4.49,4.49,0,0,0-3.05-1.2H10.79a2.36,2.36,0,0,0-1.57-2.05,2.21,2.21,0,0,0-.76-.13H7.16V8.23A2.36,2.36,0,0,1,9.51,5.88h2.26a.69.69,0,0,0,.67-.71.71.71,0,0,0-.67-.67H9.51A3.75,3.75,0,0,0,5.77,8.24v3.48H4.84A2.33,2.33,0,0,0,2.5,14.05v7.21a4.88,4.88,0,0,0,4.87,4.87h.34l-.75,2a2,2,0,0,0,1.22,2.58,2.06,2.06,0,0,0,.65.11H9.94a2,2,0,0,0,1.59-.79l3-3.93H37.64l3,3.93a2,2,0,0,0,1.6.79h1.11a2,2,0,0,0,2-2,2.06,2.06,0,0,0-.11-.65l-.76-2h.35a4.87,4.87,0,0,0,4.86-4.87V14.05A2.33,2.33,0,0,0,47.31,11.71ZM26.76,8.23a2.35,2.35,0,0,1,2.35-2.35H42.64A2.35,2.35,0,0,1,45,8.23v3.48h-1.3a2.39,2.39,0,0,0-2.15,1.44,2.42,2.42,0,0,0-.18.75H29.86a4.5,4.5,0,0,0-3.09,1.24V8.23Zm-16,7h11.5a3.09,3.09,0,0,1,3.09,3.09v1H10.79Zm-.36,14a.63.63,0,0,1-.49.24H8.83a.62.62,0,0,1-.62-.63.71.71,0,0,1,0-.2l.94-2.51h3.59Zm32.89.24H42.21a.64.64,0,0,1-.5-.24l-2.34-3.1H43l.93,2.51a.62.62,0,0,1-.38.8A.63.63,0,0,1,43.32,29.47Zm1.46-4.73H7.37a3.48,3.48,0,0,1-3.49-3.48V14.05a1,1,0,0,1,1-1H8.45a1,1,0,0,1,1,1v6a.69.69,0,0,0,.69.69H35.47a.69.69,0,0,0,0-1.38h-8.7v-1a3.09,3.09,0,0,1,3.09-3.09h11.5v4.07H38.23a.7.7,0,0,0-.72.66.69.69,0,0,0,.67.72H42a.69.69,0,0,0,.69-.69v-6a1,1,0,0,1,1-1h3.62a1,1,0,0,1,.95,1v7.21h0a3.5,3.5,0,0,1-3.48,3.49Z" fill="#f4bf1a"/></svg>