<svg id="Layer_1" data-name="Layer 1" xmlns="http://www.w3.org/2000/svg" viewBox="0 0 43 32"><defs><style>.cls-1{fill:#f6c933;}</style></defs><title>Icons</title><path id="Path_4780" data-name="Path 4780" class="cls-1" d="M40,28.4,34.5,4.77a.6.6,0,0,0-.45-.46l-7.86-1.8h-.74a.67.67,0,0,0-.24,0l-4,1.72-4-1.7a.64.64,0,0,0-.24,0h-.6l-.13,0L8.39,4.36a.59.59,0,0,0-.45.45L2.52,28.4a.59.59,0,0,0,.42.71l4.25,1.24a.5.5,0,0,0,.17,0A.6.6,0,0,0,8,29.92l3.68-14.34.54,1.56,0,11.37a.6.6,0,0,0,.6.6h0l16.93,0a.6.6,0,0,0,.6-.6h0l0-11.39.54-1.55,3.73,14.32a.6.6,0,0,0,.59.45.44.44,0,0,0,.16,0l4.22-1.18A.59.59,0,0,0,40,28.4ZM21,5.48a.57.57,0,0,0,.48,0L24.84,4V7.14l-3.46-1a.65.65,0,0,0-.34,0l-3.45,1V4Zm-2.17,5.33,2,2.36a.6.6,0,0,0,.85.08l.08-.08,1.94-2.33,0,9.29a6.65,6.65,0,0,0,1.71,4.45l3,3.3-14.21,0,3-3.31a6.66,6.66,0,0,0,1.7-4.45ZM23.64,9l-2.4,2.89L18.81,8.92V8.06l2.42-.7,2.42.69ZM6.93,29l-3.11-.9.28-1.23,3.14.9Zm.62-2.41-3.17-.9L8.65,7.11l2.25,6.42ZM9.32,5.39l7.06-1.65V8a.59.59,0,0,0,.59.6l.18,0,.44-.13,0,11.74a5.39,5.39,0,0,1-1.39,3.64L13.4,26.94l0-9.91a.69.69,0,0,0,0-.2ZM29.13,16.8a.69.69,0,0,0,0,.2l0,9.91-2.84-3.14a5.45,5.45,0,0,1-1.4-3.64l0-11.73.43.12a.6.6,0,0,0,.75-.4.55.55,0,0,0,0-.18V3.72l7.07,1.62Zm4.66-9.72,4.3,18.57L35,26.56,31.57,13.5ZM35.59,29l-.32-1.25,3.09-.89.29,1.28Z"/><path id="Path_4781" data-name="Path 4781" class="cls-1" d="M26.08,12.18H29.7v1.21H26.08Z" fill="#f4bf1a"/></svg>