<svg xmlns="http://www.w3.org/2000/svg" width="20.172" height="20.172" viewBox="0 0 20.172 20.172"><defs><style>.a{fill:#fbd303;}.b{fill:#646b79;}.c{fill:#6eb1e1;}.d{fill:#4f5565;}.e{fill:#fcfcfd;}.f{fill:#f1f3f7;}.g{fill:#f0582f;}</style></defs><g transform="translate(0 0)"><circle class="a" cx="10.086" cy="10.086" r="10.086" transform="translate(0 0)"/><path class="b" d="M132.4,43.4h-9.509a.482.482,0,0,0-.484.484V59.679a.482.482,0,0,0,.484.484h9.5a.482.482,0,0,0,.484-.484V43.871A.476.476,0,0,0,132.4,43.4Z" transform="translate(-117.557 -41.682)"/><rect class="c" width="9.818" height="13.215" transform="translate(5.171 3.143)"/><g transform="translate(9.294 2.377)"><path class="d" d="M236.1,60.016h-1.343a.121.121,0,1,0,0,.242h1.356a.12.12,0,0,0,.121-.121A.143.143,0,0,0,236.1,60.016Z" transform="translate(-234.638 -60.016)"/><circle class="d" cx="0.698" cy="0.698" r="0.698" transform="translate(0.094 14.303)"/></g><path class="e" d="M201.967,243.918l-.43-.2.86-1.813h-5.735v-.483h6.514Z" transform="translate(-188.872 -231.858)"/><circle class="d" cx="0.672" cy="0.672" r="0.672" transform="translate(11.55 13.39)"/><circle class="f" cx="0.322" cy="0.322" r="0.322" transform="translate(11.899 13.739)"/><circle class="d" cx="0.672" cy="0.672" r="0.672" transform="translate(9.133 13.39)"/><circle class="f" cx="0.322" cy="0.322" r="0.322" transform="translate(9.482 13.739)"/><path class="g" d="M148.417,203.1a.242.242,0,1,0,0,.483h.7V203.1h-.7Z" transform="translate(-142.306 -195.059)"/><path class="e" d="M178.075,206.771h-4.029l-1.652-3.532a.239.239,0,0,0-.215-.134h-.269v.483h.107l1.665,3.532a.239.239,0,0,0,.215.134h4.177a.282.282,0,0,1,0,.564h-4.137a.242.242,0,0,0,0,.483h4.137a.765.765,0,0,0,.766-.766A.774.774,0,0,0,178.075,206.771Z" transform="translate(-165.102 -195.06)"/><path class="g" d="M130.543,79.343v2.7a.98.98,0,1,0,1.961,0v-2.7Z" transform="translate(-125.372 -76.2)"/><path class="f" d="M180.387,79.343v2.7a.98.98,0,1,0,1.961,0v-2.7Z" transform="translate(-173.242 -76.2)"/><g transform="translate(9.106 3.143)"><path class="g" d="M229.891,79.343v2.7a.98.98,0,0,0,1.961,0v-2.7Z" transform="translate(-229.891 -79.343)"/><path class="g" d="M328.9,79.343v2.7a.98.98,0,0,0,1.961,0v-2.7Z" transform="translate(-324.979 -79.343)"/></g><path class="f" d="M279.4,79.343v2.7a.98.98,0,1,0,1.961,0v-2.7Z" transform="translate(-268.329 -76.2)"/></g></svg>