<svg id="Layer_1" data-name="Layer 1" xmlns="http://www.w3.org/2000/svg" viewBox="0 0 39 38"><defs><style>.cls-1{fill:#f6c933;}</style></defs><title>Icons</title><path id="Path_4782" data-name="Path 4782" class="cls-1" d="M19.48,2.5a17,17,0,1,0,17,17h0A17,17,0,0,0,19.48,2.5ZM34.62,14.81a21,21,0,0,0-5.85-.53,11,11,0,0,1,2.1-5.8,15.87,15.87,0,0,1,3.75,6.33ZM30.05,7.68a12.34,12.34,0,0,0-2.4,6.66,39.28,39.28,0,0,0-5.4.8A28.58,28.58,0,0,0,17.83,3.72a15.2,15.2,0,0,1,1.65-.09A15.8,15.8,0,0,1,30.05,7.68ZM18.15,35.26a15.73,15.73,0,0,1-7.09-2.37c4.39-5.74,6.42-10.81,6-15.1q2.07-.69,4.2-1.23c.58,5.08,0,11.33-3.16,18.7ZM16.93,16.61c0-.2-.08-.4-.13-.59C15.66,11.65,12,9.1,8.91,7.68A15.81,15.81,0,0,1,16.59,3.9a27.6,27.6,0,0,1,4.56,11.5c-1.32.32-2.73.72-4.22,1.21ZM8,8.53C11,9.8,14.63,12.17,15.71,16.3c0,.22.1.45.14.67a91.72,91.72,0,0,0-12,5.27A15.78,15.78,0,0,1,8,8.53ZM4.12,23.39A92.11,92.11,0,0,1,16,18.17c.25,4-1.72,8.68-5.87,14.09a16,16,0,0,1-6-8.87ZM19.48,35.32h-.14c3.1-7.48,3.69-13.84,3.07-19a37.38,37.38,0,0,1,5.26-.83c.22,3.11,1.83,6.75,6.19,10.64A15.87,15.87,0,0,1,19.48,35.32ZM34.33,25c-3.84-3.51-5.35-6.75-5.55-9.6a18.65,18.65,0,0,1,6.17.68A15.78,15.78,0,0,1,34.33,25Z"/><path id="Path_4783" data-name="Path 4783" class="cls-1" d="M6.11,17.61A.56.56,0,0,0,6.67,17h0a8.86,8.86,0,0,1,2.26-5.68.56.56,0,0,0,0-.8.58.58,0,0,0-.78,0A9.86,9.86,0,0,0,5.54,17a.57.57,0,0,0,.57.57Z"/><path id="Path_4784" data-name="Path 4784" class="cls-1" d="M10.36,29.77a.57.57,0,0,0,.57-.56.58.58,0,0,0-.32-.52,5.72,5.72,0,0,1-2.73-3.86.58.58,0,0,0-.67-.44.56.56,0,0,0-.44.66A6.83,6.83,0,0,0,10.1,29.7.48.48,0,0,0,10.36,29.77Z"/><path id="Path_4785" data-name="Path 4785" class="cls-1" d="M16,31.7l-1.82-.6a.56.56,0,0,0-.74.32.58.58,0,0,0,.33.74h.05l1.82.6a.57.57,0,0,0,.4-1.06Z" fill="#f4bf1a"/></svg>