<svg xmlns="http://www.w3.org/2000/svg" width="17.008" height="14.913" viewBox="0 0 17.008 14.913"><defs><style>.a{fill:#F4BF1A;stroke:#eeb91a;stroke-width:0.5px;}</style></defs><g transform="translate(0.25 0.25)"><path class="a" d="M251.556,263.75h-2.243a1.114,1.114,0,0,0-1.113,1.113v1.72a1.114,1.114,0,0,0,1.113,1.113h2.243a1.114,1.114,0,0,0,1.113-1.113v-1.72A1.114,1.114,0,0,0,251.556,263.75Zm.3,2.833a.3.3,0,0,1-.3.3h-2.243a.3.3,0,0,1-.3-.3v-1.72a.3.3,0,0,1,.3-.3h2.243a.3.3,0,0,1,.3.3Z" transform="translate(-239.828 -255.901)"/><path class="a" d="M16.508,35.772a.376.376,0,0,0-.054-.2L14,31.256a.407.407,0,0,0-.351-.206H2.857a.4.4,0,0,0-.351.206L.054,35.573a.409.409,0,0,0-.054.2,2.368,2.368,0,0,0,1.417,2.165v7.12a.406.406,0,0,0,.4.4H14.683a.406.406,0,0,0,.4-.4v-7.07a.178.178,0,0,0,0-.044A2.374,2.374,0,0,0,16.508,35.772ZM3.093,31.863H13.411l1.919,3.376H1.177Zm8.655,4.183a1.556,1.556,0,0,1-3.063,0Zm-3.923,0a1.558,1.558,0,0,1-3.066,0Zm-6.989,0H3.9a1.558,1.558,0,0,1-3.066,0ZM6.8,44.653H4.473V40.285a.577.577,0,0,1,.577-.577H6.227a.577.577,0,0,1,.577.577v4.368Zm7.478,0H7.61V40.285A1.388,1.388,0,0,0,6.223,38.9H5.046A1.388,1.388,0,0,0,3.66,40.285v4.371H2.226v-6.52c.047,0,.094,0,.142,0a2.365,2.365,0,0,0,1.963-1.046,2.366,2.366,0,0,0,3.926,0,2.359,2.359,0,0,0,3.919,0A2.365,2.365,0,0,0,14.14,38.14c.047,0,.091,0,.138,0v6.517Zm-.138-7.323a1.555,1.555,0,0,1-1.531-1.282h3.066A1.564,1.564,0,0,1,14.14,37.331Z" transform="translate(0 -31.05)"/></g></svg>