<svg id="Layer_1" data-name="Layer 1" xmlns="http://www.w3.org/2000/svg" viewBox="0 0 41 47"><defs><style>.cls-1{fill:#f6c933;}</style></defs><title>Icons</title><path id="Path_4768" data-name="Path 4768" class="cls-1" d="M27.9,14.47a.58.58,0,0,0,.58-.58h0v-1a.58.58,0,0,0-1.16,0v1a.58.58,0,0,0,.58.58Z"/><path id="Path_4769" data-name="Path 4769" class="cls-1" d="M13.58,14.47a.58.58,0,0,0,.58-.58h0v-1a.58.58,0,0,0-1.16,0v1a.58.58,0,0,0,.58.58Z"/><path id="Path_4770" data-name="Path 4770" class="cls-1" d="M15.12,20.81A.58.58,0,1,0,16,20a3.47,3.47,0,0,1-.92-2.31c0-2.34,2.54-4.24,5.67-4.24s5.67,1.9,5.67,4.24S23.87,22,20.74,22a7.07,7.07,0,0,1-3.19-.73.56.56,0,0,0-.77.25.57.57,0,0,0,.25.78,8.21,8.21,0,0,0,3.71.86c3.77,0,6.83-2.42,6.83-5.4s-3.06-5.4-6.83-5.4-6.83,2.42-6.83,5.4A4.64,4.64,0,0,0,15.12,20.81Z"/><path id="Path_4771" data-name="Path 4771" class="cls-1" d="M20.74,19.47c1.84,0,3.28-1.12,3.28-2.54s-1.44-2.54-3.28-2.54-3.28,1.12-3.28,2.54S18.9,19.47,20.74,19.47Zm0-3.92c1.15,0,2.12.63,2.12,1.38s-1,1.38-2.12,1.38-2.12-.63-2.12-1.38,1-1.37,2.12-1.37Z"/><path id="Path_4772" data-name="Path 4772" class="cls-1" d="M36.85,33.14a5.41,5.41,0,0,0,.51-4.88,19,19,0,0,0-5.13-7.08,9.26,9.26,0,0,0,1.26-4.93,12.68,12.68,0,0,0-1.18-5.35,2.79,2.79,0,1,0-3.17-4.59,1.84,1.84,0,0,0-.22.17c-.3-.25-.62-.49-.94-.71a3.86,3.86,0,0,1,2.74-1.11A3.94,3.94,0,0,1,33.84,11a.57.57,0,0,0,.1.81.55.55,0,0,0,.78-.07l0,0A5.1,5.1,0,0,0,27,5.13a12.73,12.73,0,0,0-12.48,0,5.11,5.11,0,1,0-6.12,8A12.66,12.66,0,0,0,8,16.25a9.26,9.26,0,0,0,1.26,4.93,19,19,0,0,0-5.13,7.08,5.41,5.41,0,0,0,.51,4.88A6.3,6.3,0,0,0,3.5,36.75,6.17,6.17,0,0,0,9.59,43a6,6,0,0,0,3.57-1.19A19.2,19.2,0,0,0,20.74,43a19.2,19.2,0,0,0,7.58-1.19,6,6,0,0,0,6.56.39.58.58,0,0,0-.53-1l-.05,0a5,5,0,0,1-2.41.65,5.08,5.08,0,1,1,4.93-5.22s0,.1,0,.14a5.16,5.16,0,0,1-1,3.06.58.58,0,0,0,.12.81.59.59,0,0,0,.81-.12,6.34,6.34,0,0,0,.08-7.36ZM32.35,8.6a1.61,1.61,0,0,1-.59,1.25,12.38,12.38,0,0,0-2-2.58,1.62,1.62,0,0,1,2.27.39A1.57,1.57,0,0,1,32.35,8.6ZM6.82,8.6a3.93,3.93,0,0,1,3.94-3.94,3.89,3.89,0,0,1,2.74,1.1c-.32.23-.63.46-.94.72a2.78,2.78,0,1,0-3.39,4.41c-.16.36-.31.72-.44,1.09A3.9,3.9,0,0,1,6.82,8.6Zm2.9,1.25a1.63,1.63,0,0,1,2-2.58,12.19,12.19,0,0,0-2,2.59Zm11-5.2a11.61,11.61,0,0,1,11.59,11.6A7.28,7.28,0,0,1,29,22.8c-2,1.27-4.75,1.91-8.29,1.91s-6.33-.64-8.29-1.91a7.28,7.28,0,0,1-3.3-6.55A11.59,11.59,0,0,1,20.74,4.66Zm4.68,24a5,5,0,0,1-2.08-.58,3.07,3.07,0,0,0,.41-2.36,19.22,19.22,0,0,0,2.72-.53C26.53,25.55,27,28.64,25.42,28.64ZM15,25.17a16.76,16.76,0,0,0,2.72.53,3.07,3.07,0,0,0,.41,2.36,4.88,4.88,0,0,1-2.08.58C14.49,28.64,15,25.55,15,25.17Zm3.8,1.22a1.9,1.9,0,0,1,.09-.58c.59,0,1.21.06,1.84.06s1.26,0,1.85-.06A1.93,1.93,0,0,1,18.9,27,1.9,1.9,0,0,1,18.81,26.39ZM5.2,28.68a17.69,17.69,0,0,1,4.73-6.55,6.91,6.91,0,0,0,1,1,29.47,29.47,0,0,0-2.3,7.5,6.09,6.09,0,0,0-3.18,1.61A4.24,4.24,0,0,1,5.2,28.68Zm-.55,8.07a5,5,0,0,1,4.94-5.07,5.07,5.07,0,0,1,0,10.14,5,5,0,0,1-4.93-5.07Zm21.14,0a6.3,6.3,0,0,0,1.58,4.18,19.61,19.61,0,0,1-6.63.9,19.67,19.67,0,0,1-6.64-.9,6.3,6.3,0,0,0,1.58-4.18,6.17,6.17,0,0,0-5.89-6.22,28.82,28.82,0,0,1,2.07-6.73,11.39,11.39,0,0,0,2,1c-.09.44-1,5,2.16,5A6.22,6.22,0,0,0,19,28.92a3.07,3.07,0,0,0,3.54,0,6.29,6.29,0,0,0,2.92.88c3.2,0,2.24-4.55,2.15-5a11.06,11.06,0,0,0,2-1,28.82,28.82,0,0,1,2.07,6.73,6.17,6.17,0,0,0-5.89,6.22Zm7.08-6.14a29.23,29.23,0,0,0-2.3-7.5,9.07,9.07,0,0,0,1-1,17.69,17.69,0,0,1,4.73,6.55,4.23,4.23,0,0,1-.23,3.53,6,6,0,0,0-3.18-1.6Z"/><path id="Path_4773" data-name="Path 4773" class="cls-1" d="M9.59,33a3.72,3.72,0,1,0,3.72,3.71A3.71,3.71,0,0,0,9.59,33Zm0,6.27a2.56,2.56,0,1,1,2.56-2.56h0a2.55,2.55,0,0,1-2.56,2.56Z"/><path id="Path_4774" data-name="Path 4774" class="cls-1" d="M31.89,33a3.72,3.72,0,1,0,3.72,3.71A3.72,3.72,0,0,0,31.89,33Zm0,6.27a2.56,2.56,0,1,1,2.56-2.56h0a2.56,2.56,0,0,1-2.56,2.56Z" fill="#f4bf1a"/></svg>