<svg id="Layer_1" data-name="Layer 1" xmlns="http://www.w3.org/2000/svg" viewBox="0 0 35 43"><defs><style>.cls-1{fill:#f6c933;}</style></defs><title>Icons</title><path id="Path_4777" data-name="Path 4777" class="cls-1" d="M32.06,35.62A32.56,32.56,0,0,0,29.29,27a22.71,22.71,0,0,0-3.61-5.34,16.13,16.13,0,0,0-3.78-3.1,18.65,18.65,0,0,0,3-8.86,3.23,3.23,0,0,0-1.31-2.55V4.23a.73.73,0,0,0-.7-.76.73.73,0,0,0-.75.7V6.48a4.46,4.46,0,0,0-1.09-.14A4,4,0,0,0,17.79,8a4,4,0,0,0-3.3-1.65,4.53,4.53,0,0,0-1.09.14V4.23A.73.73,0,1,0,12,4.17v3a3.24,3.24,0,0,0-1.31,2.54,18.76,18.76,0,0,0,3,8.87,16.08,16.08,0,0,0-3.77,3.1A23.17,23.17,0,0,0,6.3,27a33,33,0,0,0-2.76,8.6A2.09,2.09,0,0,0,4.87,38l2.5.92.7.25h0a30.21,30.21,0,0,0,6.5,1.43h.11a30,30,0,0,0,13.53-1.7L30.72,38A2.1,2.1,0,0,0,32.06,35.62Zm-20-25.89A1.82,1.82,0,0,1,13,8.21l.07-.05a2.87,2.87,0,0,1,1.4-.37,2.24,2.24,0,0,1,2.39,1.82.92.92,0,0,0,1.83,0,2.25,2.25,0,0,1,2.39-1.82,2.79,2.79,0,0,1,1.38.36l.1.06a1.82,1.82,0,0,1,.91,1.52,17.92,17.92,0,0,1-3,8.41l-.11.16a6.22,6.22,0,0,1-1.75.53,6.36,6.36,0,0,0,.46-.69A6,6,0,0,0,19.58,17a.73.73,0,0,0-.5-.91.72.72,0,0,0-.9.5,4.67,4.67,0,0,1-.89,1.6,4.78,4.78,0,0,1-.44.46.69.69,0,0,0-.16.18,5.89,5.89,0,0,1-1.47-.48l-.11-.16A17.92,17.92,0,0,1,12.09,9.73ZM30.22,36.61l-2.5.92-.35.13A31,31,0,0,0,24,29.06a.73.73,0,0,0-1-.2.72.72,0,0,0-.22,1A30.05,30.05,0,0,1,26,38.11,28.47,28.47,0,0,1,15.44,39.2a8.81,8.81,0,0,1,.85-3.45.73.73,0,0,0-1.3-.66v0a10.36,10.36,0,0,0-1,3.94A27.87,27.87,0,0,1,9.14,38c.36-2.06,1.77-8.94,5.14-12.8a.73.73,0,0,0-1.1-1c-3.53,4-5,10.86-5.44,13.28l-2.36-.87A.65.65,0,0,1,5,35.89c1.27-6.84,3.94-10.92,6-13.14a14.27,14.27,0,0,1,3.83-3.08,7.32,7.32,0,0,0,6.11,0c1.38.72,7.62,4.54,9.77,16.22A.64.64,0,0,1,30.22,36.61Z" fill="#f4bf1a"/></svg>