<svg class="svg-icon" style="width: 1em; height: 1em;vertical-align: middle;fill: currentColor;overflow: hidden;" viewBox="0 0 1024 1024" version="1.1" xmlns="http://www.w3.org/2000/svg"><path d="M237.714286 219.428571v-18.285714a54.857143 54.857143 0 0 1 54.857143-54.857143h36.571428V128a54.857143 54.857143 0 0 1 54.857143-54.857143h438.857143a54.857143 54.857143 0 0 1 54.857143 54.857143v621.714286a54.857143 54.857143 0 0 1-54.857143 54.857143h-36.571429v18.285714a54.857143 54.857143 0 0 1-54.857143 54.857143h-36.571428v18.285714a54.857143 54.857143 0 0 1-54.857143 54.857143H201.142857a54.857143 54.857143 0 0 1-54.857143-54.857143V274.285714a54.857143 54.857143 0 0 1 54.857143-54.857143h36.571429z m548.571428 548.571429h36.571429a18.285714 18.285714 0 0 0 18.285714-18.285714V128a18.285714 18.285714 0 0 0-18.285714-18.285714H384a18.285714 18.285714 0 0 0-18.285714 18.285714v18.285714h365.714285a54.857143 54.857143 0 0 1 54.857143 54.857143v566.857143z m-91.428571 73.142857h36.571428a18.285714 18.285714 0 0 0 18.285715-18.285714V201.142857a18.285714 18.285714 0 0 0-18.285715-18.285714H292.571429a18.285714 18.285714 0 0 0-18.285715 18.285714v18.285714h365.714286a54.857143 54.857143 0 0 1 54.857143 54.857143v566.857143zM201.142857 256a18.285714 18.285714 0 0 0-18.285714 18.285714v621.714286a18.285714 18.285714 0 0 0 18.285714 18.285714h438.857143a18.285714 18.285714 0 0 0 18.285714-18.285714V274.285714a18.285714 18.285714 0 0 0-18.285714-18.285714H201.142857z m73.142857 91.428571h292.571429a18.285714 18.285714 0 0 1 0 36.571429H274.285714a18.285714 18.285714 0 0 1 0-36.571429z m0 274.285715h182.857143a18.285714 18.285714 0 0 1 0 36.571428H274.285714a18.285714 18.285714 0 0 1 0-36.571428z m0-182.857143h237.714286a18.285714 18.285714 0 0 1 0 36.571428H274.285714a18.285714 18.285714 0 0 1 0-36.571428z m0 91.428571h292.571429a18.285714 18.285714 0 0 1 0 36.571429H274.285714a18.285714 18.285714 0 0 1 0-36.571429z m0 182.857143h256a18.285714 18.285714 0 0 1 0 36.571429H274.285714a18.285714 18.285714 0 0 1 0-36.571429z m0 91.428572h146.285715a18.285714 18.285714 0 0 1 0 36.571428h-146.285715a18.285714 18.285714 0 0 1 0-36.571428z" fill="#005DBA" /><path d="M786.285714 768V201.142857a54.857143 54.857143 0 0 0-54.857143-54.857143H365.714286V128a18.285714 18.285714 0 0 1 18.285714-18.285714h438.857143a18.285714 18.285714 0 0 1 18.285714 18.285714v621.714286a18.285714 18.285714 0 0 1-18.285714 18.285714h-36.571429z m-91.428571 73.142857V274.285714a54.857143 54.857143 0 0 0-54.857143-54.857143H274.285714v-18.285714a18.285714 18.285714 0 0 1 18.285715-18.285714h438.857142a18.285714 18.285714 0 0 1 18.285715 18.285714v621.714286a18.285714 18.285714 0 0 1-18.285715 18.285714h-36.571428zM201.142857 256h438.857143a18.285714 18.285714 0 0 1 18.285714 18.285714v621.714286a18.285714 18.285714 0 0 1-18.285714 18.285714H201.142857a18.285714 18.285714 0 0 1-18.285714-18.285714V274.285714a18.285714 18.285714 0 0 1 18.285714-18.285714z m73.142857 91.428571a18.285714 18.285714 0 0 0 0 36.571429h292.571429a18.285714 18.285714 0 0 0 0-36.571429H274.285714z m0 274.285715a18.285714 18.285714 0 0 0 0 36.571428h182.857143a18.285714 18.285714 0 0 0 0-36.571428H274.285714z m0-182.857143a18.285714 18.285714 0 0 0 0 36.571428h237.714286a18.285714 18.285714 0 0 0 0-36.571428H274.285714z m0 91.428571a18.285714 18.285714 0 0 0 0 36.571429h292.571429a18.285714 18.285714 0 0 0 0-36.571429H274.285714z m0 182.857143a18.285714 18.285714 0 0 0 0 36.571429h256a18.285714 18.285714 0 0 0 0-36.571429H274.285714z m0 91.428572a18.285714 18.285714 0 0 0 0 36.571428h146.285715a18.285714 18.285714 0 0 0 0-36.571428h-146.285715z" fill="#FFFFFF" /></svg>