<?xml version="1.0" encoding="utf-8"?>
<!-- Generator: Adobe Illustrator 18.0.0, SVG Export Plug-In . SVG Version: 6.00 Build 0)  -->
<!DOCTYPE svg PUBLIC "-//W3C//DTD SVG 1.1//EN" "http://www.w3.org/Graphics/SVG/1.1/DTD/svg11.dtd">
<svg version="1.1" id="Layer_1" xmlns="http://www.w3.org/2000/svg" xmlns:xlink="http://www.w3.org/1999/xlink" x="0px" y="0px"
	 viewBox="0 0 256 256" style="enable-background:new 0 0 256 256;" xml:space="preserve">
<g>
	<path style="fill:#FFFFFF;" d="M256,185.6c0-0.34-0.04-0.68-0.1-1.02c-0.01-0.03-0.02-0.06-0.03-0.09c-0.2-0.92-0.65-1.8-1.36-2.52
		c-0.02-0.02-0.05-0.03-0.07-0.05l-51.52-51.52c-1.99-1.99-5.25-1.99-7.24,0c-1.99,1.99-1.99,5.25,0,7.24l42.84,42.84H5.12
		c-2.82,0-5.12,2.3-5.12,5.12c0,2.82,2.3,5.12,5.12,5.12h233.4l-42.84,42.84c-1.99,1.99-1.99,5.25,0,7.24
		c1.99,1.99,5.25,1.99,7.24,0l51.52-51.52c0.02-0.02,0.05-0.03,0.07-0.05c0.71-0.71,1.16-1.59,1.36-2.52
		c0.01-0.03,0.02-0.06,0.03-0.09C255.96,186.29,256,185.94,256,185.6L256,185.6L256,185.6z"/>
	<path style="fill:#FFFFFF;" d="M0,70.4c0-0.34,0.04-0.68,0.1-1.02c0.01-0.03,0.02-0.06,0.03-0.09c0.2-0.92,0.65-1.8,1.36-2.52
		c0.02-0.02,0.05-0.03,0.07-0.05L53.08,15.2c1.99-1.99,5.25-1.99,7.24,0c1.99,1.99,1.99,5.25,0,7.24L17.48,65.28h233.4
		c2.82,0,5.12,2.3,5.12,5.12c0,2.82-2.3,5.12-5.12,5.12H17.48l42.84,42.84c1.99,1.99,1.99,5.25,0,7.24c-1.99,1.99-5.25,1.99-7.24,0
		L1.56,74.08c-0.02-0.02-0.05-0.03-0.07-0.05c-0.71-0.71-1.16-1.59-1.36-2.52c-0.01-0.03-0.02-0.06-0.03-0.09
		C0.04,71.09,0,70.74,0,70.4L0,70.4L0,70.4z"/>
</g>
</svg>
