<svg xmlns="http://www.w3.org/2000/svg" viewBox="0 0 256 256"><g fill-rule="evenodd" clip-rule="evenodd" fill="#f4bf1a"><path d="M0 100.2c.5-1.8.8-3.6 1.5-5.4 2.2-5.8 6.2-10 11.9-12.6 52.2-23 104.5-45.9 156.7-69a22.5 22.5 0 0 1 30.3 11l23 52.3.4 1.2H62.2A32.4 32.4 0 0 0 33 94.4a29.6 29.6 0 0 0-4.3 15.4v60.5c0 .5 0 1-.3 1.6l-.5-1.1-25.5-58.4c-1-2.3-1.6-4.8-2.3-7.3v-4.9z"/><path d="M147.6 245H61.8a22.4 22.4 0 0 1-22.7-22.8V111c0-12.9 9.9-22.8 22.8-22.8h171.3c13 0 22.8 10 22.8 23V222c0 13-9.9 22.8-22.8 22.8h-85.6zm-13.7-80.8h69.2a5.2 5.2 0 0 0 4.3-6.7c-.8-2.6-2.8-3.9-5.8-3.9H65a5.3 5.3 0 0 0-4.7 7c.8 2.3 2.8 3.6 5.8 3.6H134zm4.9-36.2h15c2.9 0 5.1-2.4 5.1-5.3 0-2.8-2.3-5.2-5.2-5.2h-29.8a5 5 0 0 0-4.3 2.5c-2.2 3.5.2 8 4.4 8h14.8zm-57.5 0h14.3c.6 0 1.4 0 2-.2a5.3 5.3 0 0 0-1.6-10.3H65.4c-2.6.6-4.4 3-4.1 5.6a5.2 5.2 0 0 0 5.1 4.9h14.9zm133.3 98.4h14.8c3 0 5.4-2.3 5.3-5.2 0-3-2.3-5.3-5.4-5.3h-29.2a5.2 5.2 0 0 0-5.4 6.2 5.2 5.2 0 0 0 5.2 4.3h14.7z"/></g></svg>