<svg xmlns="http://www.w3.org/2000/svg" viewBox="0 0 256 256"><g fill="#f4bf1a"><path d="M25.6 108.2a25.6 25.6 0 0 0 25.6-25.6H0a25.6 25.6 0 0 0 25.6 25.6zM76.8 108.2a25.6 25.6 0 0 0 25.6-25.6H51.2a25.6 25.6 0 0 0 25.6 25.6z"/><path d="M128 108.2a25.6 25.6 0 0 0 25.6-25.6h-51.2a25.6 25.6 0 0 0 25.6 25.6z"/><path d="M179.2 108.2a25.6 25.6 0 0 0 25.6-25.6h-51.2a25.6 25.6 0 0 0 25.6 25.6zM230.4 108.2A25.6 25.6 0 0 0 256 82.6h-51.2a25.6 25.6 0 0 0 25.6 25.6zM228 17.4H28L0 75.7h256z"/><path d="M205.8 101.2h-2c-3 10.8-12.9 16.3-24.6 16.3a25 25 0 0 1-24.6-16.3h-2c-3 10.8-12.9 16.3-24.6 16.3s-21.6-5.5-24.6-16.3h-2c-3 10.8-12.9 16.3-24.6 16.3s-21.6-5.5-24.6-16.3h-2c-3 10.8-12.9 16.3-24.6 16.3v107c0 7.7 6.3 14 14.1 14h110.4v-81.4a7 7 0 0 1 7-7h44.2a7 7 0 0 1 7 7v81.4h8a14 14 0 0 0 14.1-14v-107c-11.7 0-21.6-5.5-24.6-16.3zm-79 88.5a7 7 0 0 1-7 7H52.5a7 7 0 0 1-7-7V157a7 7 0 0 1 7-7h67.4a7 7 0 0 1 7 7v32.6z"/></g></svg>