<svg xmlns="http://www.w3.org/2000/svg" viewBox="0 0 256 256"><g fill="#939eb0"><path d="M76.5 11.4H21.3A21.4 21.4 0 0 0 0 32.7V88c0 11.7 9.6 21.3 21.3 21.3h55.2c11.7 0 21.3-9.6 21.3-21.3V32.7c0-11.7-9.6-21.3-21.3-21.3zM76.5 158.2H21.3A21.4 21.4 0 0 0 0 179.5v55.2C0 246.4 9.6 256 21.3 256h55.2c11.7 0 21.3-9.6 21.3-21.3v-55.2c0-11.7-9.6-21.3-21.3-21.3zM223.3 158.2H168a21.4 21.4 0 0 0-21.3 21.3v55.2c0 11.7 9.6 21.3 21.3 21.3h55.2c11.7 0 21.3-9.6 21.3-21.3v-55.2c0-11.7-9.6-21.3-21.3-21.3zM249.8 45.2l-39-39a21.4 21.4 0 0 0-30.2 0l-39 39a21.4 21.4 0 0 0 0 30.2l39 39a21.4 21.4 0 0 0 30.2 0l39-39a21.4 21.4 0 0 0 0-30.2z"/></g></svg>