<svg xmlns="http://www.w3.org/2000/svg" viewBox="0 0 256 256"><path d="M0 223v-11.3c3.8-13.3 10.8-24 24.1-29.7 1-.5 1.7-3.2 1.7-4.8V143c.2-17.4 10.5-27.7 28.1-27.8h61.3c0-12.2-.1-23.7.1-35.2 0-3.8-1-5.8-4.6-7.7A36.1 36.1 0 0 1 90 41c-1-15 5-27 17.9-35 4.5-2.8 10-4.1 15-6.1h10.3c.5.3 1 .7 1.5.8C152.2 4.8 164 17 166 33.2c2.2 16.8-6 31.3-22 40a7 7 0 0 0-3 5c-.3 11-.2 22-.2 33 0 1.3.4 2.6.6 4 20 0 39.5.5 59-.1 17.7-.6 31 11 29.9 29.6-.7 10.4 0 20.9-.2 31.3-.1 3.9 1 5.9 4.7 7.7a38 38 0 0 1 19 46.2 38 38 0 0 1-43 25.3c-16.3-3-28.8-15.7-31-31.3a38.8 38.8 0 0 1 20.9-40.6c1.6-.9 3.8-2.6 3.9-3.9.3-12.6.1-25.3.1-38.2H141c0 13-.1 25.7.1 38.4 0 1.2 2 2.8 3.5 3.6a37.6 37.6 0 0 1 21.7 35.2c0 18-13 33.3-31.1 36.8a38.2 38.2 0 0 1-42.5-22.8c-6.9-16.8-1.4-37.2 14-46 7.3-4.2 9.8-8.7 8.6-16.4-.3-1.5 0-3 0-4.5v-24.2H51.6l-.4 1.6v34c-.1 3.3.7 5 3.8 6.5a37.7 37.7 0 0 1 21.3 39.2 37.8 37.8 0 0 1-27.2 31.8 37 37 0 0 1-41-13.6c-3.7-5.2-5.5-11.8-8.1-17.7zM128.3 205a13 13 0 0 0-13 13c0 6.7 6 12.6 12.8 12.6 7 0 13.1-6 13-13a13 13 0 0 0-12.8-12.6zM128 51.2a13 13 0 0 0 13-12.5c.2-6.9-5.9-13.1-12.9-13.2-6.7 0-12.8 5.8-13 12.6a13 13 0 0 0 13 13.1zM51.2 217.8a12.8 12.8 0 0 0-25.6-.3c0 7 6 13.1 13 13a13 13 0 0 0 12.6-12.7zm166.4-13a12.8 12.8 0 0 0 .2 25.7c6.8 0 12.7-5.9 12.8-12.7 0-7-5.9-13-13-13z" fill="#f4bf1a"/></svg>