<svg xmlns="http://www.w3.org/2000/svg" viewBox="0 0 256 256"><path d="M119.5 0h17l2.1.5c5.2.7 10.4 1 15.6 2.2a127 127 0 0 1 87.2 66 126.5 126.5 0 0 1 14.4 52c.5 5.9 0 11.8-.4 17.7a127.6 127.6 0 0 1-52.3 93A127.2 127.2 0 0 1 27 206a124.3 124.3 0 0 1-25.5-59.9L0 136.4v-17l.5-1.9c1-6.8 1.7-13.7 3.3-20.3C11.1 68 27 44.4 50.9 26 68 12.7 87.7 4.6 109.3 1.4l10-1.4zM68.2 119.2h51V85.3H74.4c-.7 0-1.7 1-1.8 1.7a160 160 0 0 0-2.4 13c-.8 6.4-1.3 12.7-2 19.2zm51.1 17.4H68.5v2.4l3.8 28.9c.2 2 1 2.7 3.1 2.7H117l2.4-.2v-33.8zm17.3 33.7l.9.2h44c1.3 0 1.8-.6 2-1.8.9-5.8 2-11.5 2.8-17.2.6-5 .8-10 1.3-15h-51v33.8zm0-85v34h50.7c0-.4.2-.7.1-.9l-4-31.6c-.2-1.6-1.2-1.5-2.3-1.5h-44.5zM77.8 187.7l.8 2.4c2.1 5 4 10.1 6.6 15a76 76 0 0 0 17.8 23.5c4.8 4 10 7.4 16.3 9v-49.9H77.8zm58.8 49.6h.5l1.5-.3a40.5 40.5 0 0 0 14.3-8.4A88 88 0 0 0 175 196l3.1-8.1h-41.6v49.5zm-17.2-219a36 36 0 0 0-13.6 6.7A83.1 83.1 0 0 0 81 59.8L77.7 68h41.7V18.3zM136.5 68h41.6a112 112 0 0 0-15.7-30.5 54.1 54.1 0 0 0-19-16.6c-2-1-4.4-1.8-6.9-2.8V68zM51 119.3l4.2-34H26.8c-.6.1-1.6 1-1.8 1.6-1.9 5.7-3.8 11.4-5.2 17.2-1.2 5-1.8 10-2.6 15.2H51zm154.1 0h33.4V118c-1-10.8-3.5-21.2-7.4-31.2-.5-1.3-1.3-1.5-2.5-1.5H201l4.1 34zM17.6 136.5c0 8 4.2 26.5 7.6 32.9.3.6 1.5 1 2.3 1l26 .1 1.5-.2-4-33.8H17.5zm220.8.1H205l-4.1 34H223.7c6.7 0 6.8 0 9-6.4 3.2-8.9 5-18 5.7-27.6zM34.5 68.2h3.1l19.5.1c2.2 0 3.2-.6 4-2.7A136 136 0 0 1 73.4 38l6.2-9.7a112.1 112.1 0 0 0-45.2 40zm44.7 159c-8-11.7-14-24.2-18.4-37.6-.6-1.6-1.4-2-3-2H37.1c-.7 0-1.4 0-2.6.2a108.8 108.8 0 0 0 44.6 39.4zm97 .5a112 112 0 0 0 45.1-40l-2.8-.1h-20.2c-1.8 0-2.7.5-3.2 2.2a138 138 0 0 1-12.7 28.1c-1.8 3.2-3.8 6.2-6.2 9.8zm45.2-159.5a109.4 109.4 0 0 0-44.7-39.6c6.7 10 12.2 20.4 16.3 31.7 1 2.5 1.3 6 3.1 7.3 2 1.4 5.4.6 8.2.6h17.1z" fill="#f4bf1a"/></svg>