<?xml version="1.0" encoding="utf-8"?>
<!-- Generator: Adobe Illustrator 18.0.0, SVG Export Plug-In . SVG Version: 6.00 Build 0)  -->
<!DOCTYPE svg PUBLIC "-//W3C//DTD SVG 1.1//EN" "http://www.w3.org/Graphics/SVG/1.1/DTD/svg11.dtd">
<svg version="1.1" id="Layer_1" xmlns="http://www.w3.org/2000/svg" xmlns:xlink="http://www.w3.org/1999/xlink" x="0px" y="0px"
	 viewBox="0 0 256 256" style="enable-background:new 0 0 256 256;" xml:space="preserve">
<g>
	<path style="fill:#FFFFFF;" d="M198.4,0H57.6c-7.04,0-12.8,5.76-12.8,12.8v230.4c0,7.04,5.76,12.8,12.8,12.8H112v-11.7H57.52v-9.39
		H112v-10.27H57.6V30.75h140.8v193.89H144v10.27h54.75v9.39H144V256h54.4c7.04,0,12.8-5.76,12.8-12.8V12.8
		C211.2,5.76,205.44,0,198.4,0z M198.75,20.3H57.52v-1.71c0-4.24,3.44-7.68,7.68-7.68h125.87c4.24,0,7.68,3.44,7.68,7.68V20.3z"/>
	<path style="fill:#FFFFFF;" d="M160.58,165.7c1.99-1.99,1.99-5.25,0-7.24l-28.9-28.9c-0.02-0.02-0.03-0.05-0.05-0.07
		c-0.46-0.46-1-0.8-1.56-1.05c-0.03-0.01-0.05-0.03-0.08-0.04c-0.25-0.1-0.5-0.17-0.76-0.24c-0.07-0.02-0.14-0.05-0.21-0.06
		c-0.33-0.07-0.67-0.1-1.01-0.1l0,0c0,0,0,0,0,0c-0.34,0-0.68,0.04-1.01,0.1c-0.07,0.01-0.14,0.04-0.21,0.06
		c-0.26,0.06-0.51,0.13-0.76,0.24c-0.03,0.01-0.05,0.03-0.08,0.04c-0.57,0.25-1.1,0.59-1.56,1.05c-0.02,0.02-0.03,0.05-0.05,0.07
		l-28.9,28.9c-1.99,1.99-1.99,5.25,0,7.24c1.99,1.99,5.25,1.99,7.24,0l20.22-20.22v105.4c0,2.83,2.29,5.12,5.12,5.12
		c2.83,0,5.12-2.29,5.12-5.12v-105.4l20.22,20.22C155.33,167.69,158.59,167.69,160.58,165.7z"/>
</g>
</svg>
