<?xml version="1.0" encoding="utf-8"?>
<!-- Generator: Adobe Illustrator 18.0.0, SVG Export Plug-In . SVG Version: 6.00 Build 0)  -->
<!DOCTYPE svg PUBLIC "-//W3C//DTD SVG 1.1//EN" "http://www.w3.org/Graphics/SVG/1.1/DTD/svg11.dtd">
<svg version="1.1" id="Layer_1" xmlns="http://www.w3.org/2000/svg" xmlns:xlink="http://www.w3.org/1999/xlink" x="0px" y="0px"
	 viewBox="0 0 256 256" style="enable-background:new 0 0 256 256;" xml:space="preserve">
<g>
	<g>
		<rect x="70.4" y="65.28" style="fill:#FFFFFF;" width="76.8" height="10.24"/>
		<rect x="162.56" y="65.28" style="fill:#FFFFFF;" width="23.04" height="10.24"/>
	</g>
	<g>
		<rect x="70.4" y="103.68" style="fill:#FFFFFF;" width="76.8" height="10.24"/>
		<rect x="162.56" y="103.68" style="fill:#FFFFFF;" width="23.04" height="10.24"/>
	</g>
	<g>
		<rect x="70.4" y="142.08" style="fill:#FFFFFF;" width="76.8" height="10.24"/>
		<rect x="162.56" y="142.08" style="fill:#FFFFFF;" width="23.04" height="10.24"/>
	</g>
	<g>
		<rect x="70.4" y="180.48" style="fill:#FFFFFF;" width="76.8" height="10.24"/>
		<rect x="162.56" y="180.48" style="fill:#FFFFFF;" width="23.04" height="10.24"/>
	</g>
	<path style="fill:#FFFFFF;" d="M211.2,0H44.8C37.76,0,32,5.76,32,12.8v230.4c0,7.04,5.76,12.8,12.8,12.8h166.4
		c7.04,0,12.8-5.76,12.8-12.8V12.8C224,5.76,218.24,0,211.2,0z M211.2,236.8c0,3.52-2.88,6.4-6.4,6.4H51.2c-3.52,0-6.4-2.88-6.4-6.4
		V19.2c0-3.52,2.88-6.4,6.4-6.4h153.6c3.52,0,6.4,2.88,6.4,6.4V236.8z"/>
</g>
</svg>
